<svg xmlns="http://www.w3.org/2000/svg" xmlns:xlink="http://www.w3.org/1999/xlink" id="Layer_1" x="0px" y="0px" viewBox="0 0 512 512" style="enable-background:new 0 0 512 512;" xml:space="preserve"><style type="text/css">	.st0{fill:#18517D;}	.st1{opacity:0.7;fill:#FFFFFF;}	.st2{fill:#FFFFFF;stroke:#1A2E35;stroke-linecap:round;stroke-linejoin:round;stroke-miterlimit:10;}	.st3{fill:#F6B61C;stroke:#1A2E35;stroke-width:0.7304;stroke-linecap:round;stroke-linejoin:round;stroke-miterlimit:10;}	.st4{opacity:0.36;fill:#FFFFFF;}	.st5{fill:#1A2E35;stroke:#1A2E35;stroke-linecap:round;stroke-linejoin:round;stroke-miterlimit:10;}	.st6{fill:none;stroke:#1A2E35;stroke-linecap:round;stroke-linejoin:round;stroke-miterlimit:10;}</style><g>	<path class="st0" d="M467,351.3c34-80.5,38.3-194.4-20.3-265.1c-32.3-39-83.2-52-131.8-54.9c-43.5-2.6-90.1-1.6-129.7,19   c-67,34.9-68.7,117.9-118.9,166.9C25.8,256.8,9,313.1,43.6,387.1c34.6,74.1,98.7,90.8,161.9,67.1c63.2-23.7,91.8-28.6,167.9-16.8   c34.9,5.4,60.3-20.8,75.6-49C455.6,376.4,461.6,363.9,467,351.3z"></path>	<path class="st1" d="M467,351.3c34-80.5,38.3-194.4-20.3-265.1c-32.3-39-83.2-52-131.8-54.9c-43.5-2.6-90.1-1.6-129.7,19   c-67,34.9-68.7,117.9-118.9,166.9C25.8,256.8,9,313.1,43.6,387.1c34.6,74.1,98.7,90.8,161.9,67.1c63.2-23.7,91.8-28.6,167.9-16.8   c34.9,5.4,60.3-20.8,75.6-49C455.6,376.4,461.6,363.9,467,351.3z"></path></g><g>	<g>		<path class="st2" d="M244.1,218.4c0,0,1.3-12-9.9-22.4c-6.5-6.1-23.1-18.5-25.7-16.9s3.5,10.5,3.5,10.5s-6.6-1.9-4.3,4.2    c2.3,6.1,10.3,12.8,10.3,12.8s-11.6-1.3-9.1,3.8c2.5,5.1,11.3,8.6,11.3,8.6s-3.9,3.9-1.8,6.2c2,2.3,11.1,3.4,11.1,3.4    s-5,2.2-0.3,4.4C233.8,235.2,245.4,233.5,244.1,218.4z"></path>		<path class="st2" d="M223.1,197.4c3.7,2.1,10.4,6.5,13.2,12.2c4,8.1,3.7,11.4,3.3,13.1"></path>		<path class="st2" d="M220.6,196.1c0,0,0.5,0.2,1.4,0.7"></path>		<path class="st2" d="M228.6,215.9c2.4,0.6,4.6,0.8,4.6,0.8s-5.2,2.4-3.5,4.3c1.8,1.9,7-0.3,7-0.3"></path>		<path class="st2" d="M229.5,201.9c0,0-7.7-2.6-6.5,1.4c1.3,4,7,6.6,7,6.6s-8.9,1.1-7,3.5c0.6,0.8,1.9,1.4,3.3,1.9"></path>	</g>	<g>		<path class="st2" d="M284.6,220.4c0,0-4.6-11.2,3.3-24.3c4.6-7.6,17.1-24.1,20-23.3c3,0.8-0.4,11-0.4,11s5.8-3.7,5.3,2.8    c-0.5,6.5-6.4,15.2-6.4,15.2s10.8-4.4,9.8,1.1c-1,5.6-8.5,11.4-8.5,11.4s4.8,2.7,3.5,5.5c-1.3,2.8-9.7,6.3-9.7,6.3    s5.4,0.7,1.5,4.1C299.2,233.8,287.6,235.3,284.6,220.4z"></path>		<path class="st2" d="M299,194.4c-3,3-8.2,9.1-9.3,15.4c-1.6,8.9-0.4,12,0.5,13.5"></path>		<path class="st2" d="M301,192.4c0,0-0.4,0.4-1.1,1"></path>		<path class="st2" d="M298.8,213.7c-2.1,1.2-4.1,2.1-4.1,2.1s5.7,0.9,4.5,3.2c-1.2,2.3-6.8,1.6-6.8,1.6"></path>		<path class="st2" d="M294,200.5c0,0,6.7-4.6,6.6-0.4s-4.9,8.3-4.9,8.3s8.8-1.4,7.7,1.4c-0.4,0.9-1.4,1.9-2.6,2.7"></path>	</g>	<g>		<path class="st3" d="M252.3,239c-0.1,1.5-0.1,2.8,0.9,3.9l29.4-3.2c1.1-1.9,0.6-4,0.2-6.5c-0.7-4.6,0.2-9.4,2.1-13.6    c1.6-3.6,4.1-6.8,5.3-10.5c1.2-3.7,1.5-7.7,1.1-11.6c-1.7-15.8-15.6-27.3-31-25.6c-15.4,1.7-26.5,15.8-24.8,31.6    c0.5,4.8,2.2,9.5,5,13.4C245.1,223.6,252.6,230.2,252.3,239z"></path>					<ellipse transform="matrix(0.9267 -0.3759 0.3759 0.9267 -55.8631 113.8338)" class="st4" cx="263.8" cy="200.1" rx="19.1" ry="19.1"></ellipse>					<ellipse transform="matrix(0.8436 -0.537 0.537 0.8436 -66.1821 172.9697)" class="st4" cx="263.8" cy="200.1" rx="9.5" ry="9.5"></ellipse>		<path class="st5" d="M277.6,265.6l-13.9,1.2c-7.3,0.8-8.6-4.9-9.4-12.2l-1.1-11.6l29.4-3.2l1.1,11.6    C284.5,258.6,284.9,264.8,277.6,265.6z"></path>	</g></g><g>	<g>		<path class="st2" d="M260.6,99.3c0,0-10.7,2.7-15.9,15.6c-3.1,7.5-8.4,25.6-6.2,27.3c2.2,1.7,7.8-6.3,7.8-6.3s0.5,6.2,4.9,2.4    c4.5-3.9,7.7-12.9,7.7-12.9s2.6,10.3,6.1,6.5c3.5-3.8,3.7-12.4,3.7-12.4s4.6,2.1,5.9-0.4c1.3-2.5-0.7-10.5-0.7-10.5    s3.4,3.5,3.8-1.1C278.3,102.7,273.1,93.4,260.6,99.3z"></path>		<path class="st2" d="M249.4,123.9c0.6-3.8,2.2-10.9,6.2-15.1c5.6-6,8.6-6.8,10.1-7"></path>		<path class="st2" d="M249.1,126.5c0,0,0-0.5,0.2-1.4"></path>		<path class="st2" d="M263.5,113.3c-0.3-2.2-0.7-4.2-0.7-4.2s3.8,3.7,4.8,1.6c1.1-2.1-2.5-5.8-2.5-5.8"></path>		<path class="st2" d="M251.2,117c0,0,0.3,7.4,3.3,5.1s3.4-8.1,3.4-8.1s3.8,7.2,5.2,4.8c0.5-0.8,0.6-2,0.6-3.4"></path>	</g>	<g>		<path class="st2" d="M300.4,88.2c0,0,8.4-7.1,22-3.9c7.9,1.9,25.7,8.1,25.8,10.9c0.1,2.8-9.7,2.7-9.7,2.7s4.8,4-1,5.4    c-5.8,1.4-15-1.3-15-1.3s6.8,8.1,1.7,8.8c-5.1,0.7-12.3-4.2-12.3-4.2s-1,4.9-3.8,4.6c-2.8-0.4-8.2-6.7-8.2-6.7s0.9,4.9-3.2,2.5    C292.8,104.5,288.3,94.9,300.4,88.2z"></path>		<path class="st2" d="M326.9,93.4c-3.5-1.7-10.2-4.5-15.9-3.8c-8.1,1.1-10.5,3-11.6,4.1"></path>		<path class="st2" d="M329.2,94.6c0,0-0.4-0.3-1.2-0.7"></path>		<path class="st2" d="M310.1,98.7c-1.6-1.5-2.9-3-2.9-3s0.8,5.2-1.5,4.8c-2.3-0.4-3.3-5.4-3.3-5.4"></path>		<path class="st2" d="M320.3,90.8c0,0,5.9,4.5,2.2,5.6c-3.7,1.1-8.6-2-8.6-2s3.7,7.3,0.9,7.1c-0.9-0.1-2-0.7-3.1-1.5"></path>	</g>	<g>		<path class="st3" d="M276.9,119.2c0.3,1.4,0.6,2.5,1.7,3.3l25.2-9.6c0.5-1.9-0.4-3.7-1.3-5.8c-1.6-3.9-2-8.3-1.3-12.5    c0.6-3.5,2-7,2.3-10.5c0.2-3.5-0.5-7.1-1.7-10.4c-5.1-13.5-20-20.4-33.2-15.4c-13.2,5-19.7,20.1-14.5,33.6    c1.6,4.1,4.1,7.9,7.5,10.7C267,107.3,275.2,111.4,276.9,119.2z"></path>		<path class="st4" d="M263.7,92c5.3,8,16.1,10.1,24.1,4.7c8-5.3,10.1-16.1,4.7-24.1c-5.3-8-16.1-10.1-24.1-4.7S258.3,84,263.7,92z"></path>		<path class="st4" d="M270.9,87.1c2.7,4,8,5,12,2.4c4-2.7,5-8,2.4-12c-2.7-4-8-5-12-2.4C269.3,77.8,268.3,83.2,270.9,87.1z"></path>		<path class="st5" d="M305.3,136.8l-12,4.2c-6.2,2.4-8.7-2.4-11.1-8.6l-3.7-10l25.2-9.6l3.7,10    C309.9,129.1,311.6,134.5,305.3,136.8z"></path>	</g></g><g>	<g>		<path class="st2" d="M144.5,100.7c0,0-8.6-2.3-17.5,4.6c-5.2,4.1-16.2,14.7-15.3,16.8c0.9,2.1,8-1.3,8-1.3s-2.2,4.6,2.5,3.6    s10.6-6,10.6-6s-2.3,8.3,1.7,7.1c4-1.2,7.6-7.3,7.6-7.3s2.4,3.3,4.3,2.1c1.9-1.2,3.7-7.7,3.7-7.7s1,3.9,3.2,0.7    C155.6,110.2,155.6,101.6,144.5,100.7z"></path>		<path class="st2" d="M126.7,113.6c2-2.4,6-6.8,10.4-8.2c6.3-2,8.8-1.4,9.9-0.9"></path>		<path class="st2" d="M125.5,115.3c0,0,0.2-0.3,0.7-0.9"></path>		<path class="st2" d="M140.8,111.8c0.7-1.7,1.1-3.2,1.1-3.2s1.2,4.1,2.8,3c1.6-1.1,0.6-5.1,0.6-5.1"></path>		<path class="st2" d="M130.7,109.4c0,0-2.8,5.3,0.3,4.9c3.1-0.5,5.6-4.4,5.6-4.4s-0.2,6.6,1.7,5.5c0.6-0.4,1.2-1.2,1.8-2.2"></path>	</g>	<g>		<path class="st2" d="M164.5,78.7c0,0-5.7-6.8-3.1-17.8c1.5-6.4,6.6-20.8,8.8-20.9s2.2,7.8,2.2,7.8s3.3-3.9,4.4,0.8    c1.1,4.7-1.1,12.1-1.1,12.1s6.6-5.5,7.1-1.4c0.5,4.1-3.4,9.9-3.4,9.9s4,0.8,3.7,3.1s-5.4,6.6-5.4,6.6s3.9-0.7,2,2.6    C177.8,84.8,170,88.5,164.5,78.7z"></path>		<path class="st2" d="M168.8,57.2c-1.4,2.8-3.7,8.3-3.1,12.9c0.9,6.6,2.4,8.5,3.4,9.4"></path>		<path class="st2" d="M169.8,55.3c0,0-0.2,0.4-0.5,1"></path>		<path class="st2" d="M173,70.8c-1.2,1.3-2.5,2.4-2.5,2.4s4.2-0.7,3.9,1.2c-0.3,1.9-4.4,2.7-4.4,2.7"></path>		<path class="st2" d="M166.7,62.6c0,0,3.7-4.8,4.6-1.8c0.9,3-1.6,6.9-1.6,6.9s5.9-3,5.7-0.7c-0.1,0.7-0.6,1.6-1.2,2.5"></path>	</g>	<g>		<path class="st3" d="M161.7,107.7c0.8,0.8,1.5,1.4,2.6,1.4l12.7-17.8c-0.5-1.5-1.9-2.3-3.5-3.3c-2.9-1.9-5.1-4.7-6.5-7.8    c-1.2-2.6-1.8-5.6-3.2-8.1c-1.4-2.5-3.5-4.6-5.9-6.2c-9.6-6.8-22.7-4.8-29.3,4.5c-6.6,9.3-4.2,22.4,5.3,29.2    c2.9,2.1,6.3,3.4,9.9,3.9C149.6,104.1,156.9,103.2,161.7,107.7z"></path>					<ellipse transform="matrix(0.6525 -0.7578 0.7578 0.6525 -11.6655 139.0687)" class="st4" cx="145.8" cy="82.3" rx="14.1" ry="14.1"></ellipse>		<path class="st4" d="M143.1,88.7c3.6,1.5,7.7-0.2,9.1-3.8c1.5-3.6-0.2-7.7-3.8-9.1c-3.6-1.5-7.7,0.2-9.1,3.8    C137.9,83.2,139.6,87.3,143.1,88.7z"></path>		<path class="st5" d="M188.7,106.7l-6.1,8.2c-3.1,4.4-6.9,2.3-11.3-0.8l-7-5.1l12.7-17.8l7,5.1C188.3,99.5,191.8,102.3,188.7,106.7    z"></path>	</g></g><g>	<g>		<path class="st2" d="M362.7,179.6c0,0-4.6-13-21.3-18.1c-9.7-3-32.8-7.5-34.7-4.6c-1.9,2.9,8.7,9,8.7,9s-7.7,1.3-2.4,6.4    c5.3,5.1,16.9,8.1,16.9,8.1s-12.5,4.4-7.4,8.4c5.1,3.9,15.9,3.2,15.9,3.2s-2.1,5.9,1.2,7.3c3.3,1.4,13-2,13-2s-4,4.7,1.9,4.6    C360.5,202,371.5,194.5,362.7,179.6z"></path>		<path class="st2" d="M330.8,168.5c4.8,0.3,13.8,1.5,19.6,6c8.1,6.3,9.4,9.9,9.8,11.8"></path>		<path class="st2" d="M327.5,168.3c0,0,0.6,0,1.7,0"></path>		<path class="st2" d="M345.5,184.7c2.7-0.6,5.1-1.4,5.1-1.4s-4.2,5.1-1.4,6.2c2.7,1.1,7-3.8,7-3.8"></path>		<path class="st2" d="M339.6,169.9c0,0-9.2,1.2-5.9,4.7c3.3,3.5,10.5,3.3,10.5,3.3s-8.5,5.5-5.4,7c1,0.5,2.6,0.5,4.3,0.3"></path>	</g>	<g>		<path class="st2" d="M408.3,185.6c0,0,3.6-13.3,19.8-19.6c9.5-3.7,32.2-10,34.3-7.2c2.1,2.8-8,9.7-8,9.7s7.8,0.7,2.9,6.2    c-4.9,5.5-16.3,9.3-16.3,9.3s12.8,3.5,8,7.8c-4.8,4.3-15.6,4.5-15.6,4.5s2.5,5.8-0.6,7.4c-3.1,1.6-13.1-1-13.1-1s4.4,4.4-1.5,4.8    C412.2,207.7,400.7,201.1,408.3,185.6z"></path>		<path class="st2" d="M439.3,172c-4.8,0.7-13.7,2.6-19,7.5c-7.6,6.9-8.6,10.6-8.9,12.5"></path>		<path class="st2" d="M442.5,171.7c0,0-0.6,0-1.7,0.2"></path>		<path class="st2" d="M425.8,189.4c-2.8-0.4-5.2-1-5.2-1s4.6,4.8,1.9,6c-2.7,1.3-7.2-3.2-7.2-3.2"></path>		<path class="st2" d="M430.6,174.1c0,0,9.3,0.5,6.3,4.2c-3,3.7-10.2,4.1-10.2,4.1s8.9,4.8,5.9,6.6c-1,0.6-2.5,0.7-4.3,0.6"></path>	</g>	<g>		<path class="st3" d="M369.1,207.5c-0.3,1.7-0.5,3.1,0.5,4.6l33.7,0.4c1.5-2,1.2-4.5,1.1-7.4c-0.1-5.3,1.5-10.6,4.2-15.1    c2.3-3.8,5.5-7.2,7.4-11.2c1.9-4,2.7-8.5,2.7-12.9c0.2-18.1-13.9-32.9-31.6-33.1c-17.6-0.2-32.1,14.3-32.3,32.4    c-0.1,5.5,1.2,11,3.8,15.9C362.9,189.1,370.6,197.5,369.1,207.5z"></path>					<ellipse transform="matrix(0.1155 -0.9933 0.9933 0.1155 178.6138 530.6346)" class="st4" cx="387.3" cy="165" rx="21.7" ry="21.7"></ellipse>		<path class="st4" d="M376.7,167.3c1.3,5.8,7,9.5,12.9,8.2s9.5-7,8.2-12.9c-1.3-5.8-7-9.5-12.9-8.2    C379.1,155.8,375.5,161.5,376.7,167.3z"></path>		<path class="st5" d="M394.1,240.9l-15.8-0.5c-8.3-0.1-9-6.7-9-15l0.3-13.3l33.7,0.4l-0.3,13.3C402.8,234,402.4,241,394.1,240.9z"></path>	</g></g><g>	<path class="st2" d="M259.9,496.4c1.1-7.2-0.8-22.9-7.8-29.1c-6.9-6.1-17.7-18.5-17.7-18.5s-11.6,5.1-16.6,6.5   c-5,1.4-7.8,3.5-19.7,0.1c-11.9-3.4-21.6-10.8-21.4-15.2s-2.5-22.9-4.7-32.5c-2.1-9.6-14.3-49-14.3-49s-2.6-0.5-8.7-4.1   c-6.1-3.6-11.4-7.4-12.1-12.6c-0.6-5.2,11.6-25.8,16.2-31.7c4.6-5.9,21.6-19.4,25.6-27.8c4.1-8.4-2.1-9.6-3.1-18.6   c-0.9-9,11.9-39,11.9-39l247.4,49.6c0,0-17.1,58-26,75.6c-9,17.6-11.5,21.8-11.8,28.5c-0.3,6.7,1,44,16.5,64.8"></path>	<path class="st6" d="M204,305.9c0,0,8.7,5.6,22.4,4.6"></path>	<polygon class="st5" points="234.4,448.9 275.6,431.3 248.5,463.6  "></polygon>	<path class="st6" d="M159.5,352c0,0,7.1,0.1,9.5,1.9c2.3,1.8,4.2,4.2,8,2.6c3.7-1.6,8.5-5.1,6.6-9.2c-1.9-4.1-4.9-6.1-4.9-6.1"></path>	<line class="st6" x1="208.2" y1="281.7" x2="203.3" y2="296.3"></line>	<path class="st5" d="M232.5,302.8c0,0-29.1-5.5-34.2-7.2c-5.1-1.7-0.3,3,1.3,3.7c1.6,0.7-5.1,0-1.1,2.2   C202.5,303.6,223.9,306.6,232.5,302.8z"></path>	<path class="st5" d="M191.3,256.2c0,0,6.5,6.4,12.1,7.5c5.5,1.1,17.1-2.3,22.1-1.7c5,0.7,10.6,1.4,15.1,2.7   c4.5,1.2-2.2-5.3-9.9-7.8c-7.6-2.6-0.7-0.4-17.9-1.1C195.6,255,193.2,255.2,191.3,256.2z"></path>	<path class="st5" d="M299.5,305.4c2.7,3.6,11,7.6,11.6,6.4c0.6-1.2,12.7-17.4,20-21.8c11.6-6.8,27-7.5,35,1.6   c8,9.1,7.6,23.2,3.7,34c-3.9,10.8-6,21.2-6,21.2s10.5,10.3,13.9,13.7c3.4,3.4-6.7-3.7-5.2-1.4c1.6,2.4,12.5,12,23,15.8   c0.6,0.2,1.3,0.2,2.1,0c1.1-5.1,4.1-10.6,11.4-24.8c9-17.6,26-75.6,26-75.6L277.8,243c-3.2,4.8-9.5,14.7-9,17.5   c0.6,3.9,17.3,17,22.9,21.2c5.6,4.2,12.2,6.9,9.8,7.1c-2.4,0.2-4.1,1.9-3.4,3.4c0.7,1.5,4.6,9.1,4.6,9.1S296.9,301.8,299.5,305.4z"></path>	<path class="st6" d="M181.5,386.2c0,0,14.3-0.2,22.7-9.4"></path>	<path class="st6" d="M353.8,305.8c0,0-5.7-5.2-16.8-0.7c-11.1,4.6-14.2,20.2-11.8,26.5"></path>	<path class="st6" d="M327.1,315c0,0,12.4-7.7,15.8,0.8c3.4,8.5-2.6,17.8-7.4,16.5"></path>	<path class="st6" d="M315.1,364.9c0,0,5.7,8.9,13.5,8.8s26.4-16.8,35.9-34.9"></path></g></svg>