<svg xmlns="http://www.w3.org/2000/svg" xmlns:xlink="http://www.w3.org/1999/xlink" id="Capa_1" x="0px" y="0px" viewBox="0 0 512 512" style="enable-background:new 0 0 512 512;" xml:space="preserve"><style type="text/css">	.st0{fill:#1B507C;}	.st1{opacity:0.7;fill:#FFFFFF;}	.st2{fill:none;stroke:#1A2E35;stroke-linecap:round;stroke-linejoin:round;stroke-miterlimit:10;}	.st3{fill:none;stroke:#1A2E35;stroke-width:0.5;stroke-linecap:round;stroke-linejoin:round;stroke-miterlimit:10;}	.st4{fill:#1A2E35;}	.st5{fill:#FFFFFF;stroke:#1A2E35;stroke-linecap:round;stroke-linejoin:round;stroke-miterlimit:10;}	.st6{fill:#F9B81E;stroke:#1A2E35;stroke-linecap:round;stroke-linejoin:round;stroke-miterlimit:10;}	.st7{fill:#1A2E35;stroke:#1A2E35;stroke-linecap:round;stroke-linejoin:round;stroke-miterlimit:10;}	.st8{fill:#8C8C8C;stroke:#1A2E35;stroke-linecap:round;stroke-linejoin:round;stroke-miterlimit:10;}</style><g>	<g>		<path class="st0" d="M338.4,41.4c-7.3,4.9-14.6,10-23,12.3c-26.6,7.4-53.7-11.1-77.5-20.4C167.3,5.7,85.4,42.1,45.7,104    c-30.5,47.5,21,94.7-2.2,144c-20,42.6-25.2,106,26.1,145.9c51.2,40,85.1,44.3,143.3,17.4c58.2-26.9,102.5,5.2,158.1,14.8    c55.6,9.6,101.6-26.1,110.3-70.3c9.1-46.2-26.3-87.2-25.8-133.1c0.3-23.7,13.1-45.7,18.7-68.5c6-24.8,7.8-52.4-5.9-75.1    C444.4,39.4,392,10.4,347.9,35.4C344.7,37.3,341.5,39.3,338.4,41.4z"></path>		<path class="st1" d="M338.4,41.4c-7.3,4.9-14.6,10-23,12.3c-26.6,7.4-53.7-11.1-77.5-20.4C167.3,5.7,85.4,42.1,45.7,104    c-30.5,47.5,21,94.7-2.2,144c-20,42.6-25.2,106,26.1,145.9c51.2,40,85.1,44.3,143.3,17.4c58.2-26.9,102.5,5.2,158.1,14.8    c55.6,9.6,101.6-26.1,110.3-70.3c9.1-46.2-26.3-87.2-25.8-133.1c0.3-23.7,13.1-45.7,18.7-68.5c6-24.8,7.8-52.4-5.9-75.1    C444.4,39.4,392,10.4,347.9,35.4C344.7,37.3,341.5,39.3,338.4,41.4z"></path>	</g>	<ellipse class="st0" cx="261.2" cy="473.5" rx="159.5" ry="14.5"></ellipse>	<g>		<path class="st2" d="M404.5,161.7c0,0,2.3,4.7,1.4,6.8c-0.9,2.1-2.8,15,6.4,21.5c9.2,6.5,18,1.2,22.3-1.5c4.3-2.7,5.6-2.7,6.2-1.6    c0.6,1.1-37.1,30.8-39,31.3c-1.9,0.5-6.3,0.6-13.7-2.7c-7.4-3.3-15.3-9.7-15.4-12.4c-0.1-2.7-1.7-8.1-0.8-9.7    c0.9-1.6,28.9-35.8,28.9-35.8S402.7,158.5,404.5,161.7z"></path>		<line class="st3" x1="372.6" y1="203" x2="390.9" y2="182.5"></line>		<line class="st3" x1="392.9" y1="180.7" x2="400" y2="172.7"></line>		<path class="st2" d="M400.7,157.6l11.2-19.4c0,0,3.4-0.3,4,0.4c0.6,0.7,0.5,3.6,0.5,3.6l-11.8,19.6"></path>		<polyline class="st3" points="402.6,158.7 413.5,141.4 416.3,142.1   "></polyline>		<path class="st2" d="M408.6,155c0,0,9.6-12.1,10.9-13.2c1.2-1.1,3.4,0.9,3.4,0.9s0.5,2.8-0.3,3.5c-0.8,0.8-14.8,16.8-16.3,19.4    c0,0,18.2-18.1,19-19.4c0.8-1.3,2.2-1.7,3.3-0.8c1.1,1,1.7,3.2,0.7,4.4c-1,1.1-16.3,16.6-19,19.4c-2.8,2.8-5.1,6.9-5.1,6.9"></path>		<path class="st2" d="M416.5,140.5c0,0,3-5.8,4-6.4c0.9-0.6,3.2-0.4,3,1.1c-0.2,1.4-4,6.7-4,6.7"></path>		<line class="st2" x1="421.2" y1="158.6" x2="407.9" y2="184.9"></line>		<line class="st2" x1="427.3" y1="151.8" x2="411" y2="188.8"></line>		<line class="st2" x1="406.3" y1="180.3" x2="414.1" y2="172.4"></line>		<path class="st2" d="M430.1,148.2c0,0,4.6-6.2,5.5-5.3c0.9,1,4.5,1.9,3.1,3.2c-1.4,1.3-9.4,10.4-13.6,20.2    c-4.1,9.8-7.2,16.4-7.2,16.4"></path>		<path class="st2" d="M412.5,185.5c0,0,10.9-4.9,13.2-6.8c2.3-1.9,21.6-15.2,22.4-15.7c0.8-0.5,2.8,3,2.8,3.9s-1.6,4-2.9,3.9    c-1.3-0.1-21.8,13.4-23.8,14.7c-2,1.4-7.6,2.7-9,3.4c-1.3,0.7-3,1-3,1"></path>		<path class="st2" d="M433.1,180c0,0-4.5,6.6-6.2,9.5c-1.7,2.8-2.1,3.7-2.1,3.7"></path>		<line class="st2" x1="422" y1="187.1" x2="418.6" y2="192.7"></line>		<path class="st2" d="M441.6,167.5c0,0,4.6-6,7.3-9.4c2.7-3.4-1.1-4.8-2.9-5.7c-1.8-0.9-2.5,3.6-7,9.2c-4.5,5.6-11,15.6-11,15.6"></path>		<line class="st2" x1="422.7" y1="171.6" x2="439" y2="161.5"></line>		<path class="st2" d="M447,163.7c0,0,6-4.5,7.4-5.7s-1.3-3.6-1.7-4c-0.4-0.4-3.2,2-3.2,2"></path>		<path class="st2" d="M426.8,168.9c0.8-3,10.3-20.2,10.8-20.4c0.5-0.2,2.6-0.1,3.8,1.1c1.1,1.2-1.2,3.1-2.5,5.8s-5,9.4-5,9.4"></path>		<path class="st2" d="M440,175.7l10-2.3c0,0,1.8,2.8,0.9,4.3c-1,1.4-20.9,7-20.9,7"></path>		<line class="st2" x1="431.3" y1="190.4" x2="439.1" y2="182.1"></line>		<path class="st3" d="M422.5,146.3l-2.6,0.1c0,0-13.8,13.6-14.9,17.1"></path>		<path class="st3" d="M426.4,145.8c0,0,0.1,1.2,0.1,2.6c0.1,1.5-17.9,19.3-18.8,20.5c-1,1.1-2.7,3.4-2.7,3.4"></path>		<path class="st3" d="M436.2,144.4c0,0-10.9,12-11.7,13.7"></path>		<line class="st3" x1="421.1" y1="177.6" x2="432.1" y2="170.8"></line>		<path class="st3" d="M450.3,166.5c0,0-4.2,3.1-10.9,7.7c-6.7,4.6-17.7,10.4-19.7,11c-2,0.6-7.7,2.3-7.7,2.3"></path>		<path class="st3" d="M450.6,175.4c0,0-7.1,2.7-12,4.2c-4.9,1.5-7.1,2.7-7.1,2.7"></path>		<path class="st3" d="M446,152.4c0,0,2.2,1.8,1.2,3.2S434,173.2,434,173.2"></path>		<path class="st3" d="M439.4,148.5c0,0-9.7,17.5-9.9,18.9"></path>	</g>	<g>		<path class="st2" d="M420.8,284.2c-2.9-2.8-6.4-4.7-9.9-4.6c-3.7,0.2-6.9,3-6.9,3s-4.3-2.5-8.9-0.9c-4.6,1.6-6.6,4.5-6.6,4.5    s-5.5-1.1-9,1c-3.5,2-4.4,5.3-4.4,5.3s-7.1,0.3-10.6,3.9c-3.6,3.5-4.4,5.7-4.4,5.7s-1,4,1.8,7.6c2.8,3.5,5.1,2.5,8.6,5.7    c3.5,3.2,14.3,10.1,27.9,20.2c13.6,10.1,26.7,15.3,33,23.1c6.3,7.8,9.9,9.5,14.2,12.3c4.3,2.9,5.2-5.7,2.8-9.9    c-2.4-4.2,2.2-12.5-4.6-30.1c-6.8-17.5-13-27.5-13.9-31.3C428.7,295.1,425.3,288.6,420.8,284.2z"></path>		<path class="st2" d="M360.1,302.1c0,0,1.5-6.6,10.2-2.8c8.7,3.8,6.9,9.7,9.7,13.6c2.8,3.9,16.3,8.7,20.4,14.6    c4.1,5.8,13.2,11.9,16.8,14.3c3.6,2.4,14.1,12.4,17.7,14.4c3.6,2.1,7.5,6,8.8,8.3c1.4,2.3,1.9,5.3,3.1,4.3    c1.2-1.1,1.6-7.7,1.6-7.7"></path>		<path class="st2" d="M378.9,305.4c0,0-0.2-2.2,7.3-3.7c7.5-1.4,8.2-6.6,12-8.3c3.8-1.6,11.6-0.5,13.8-0.3c2.2,0.1,4.9-0.8,6-1.2    c1.1-0.3,5.6-3.6,5.6-3.6"></path>		<path class="st2" d="M397.4,304.7c-2.4,0.9-4.2,2.5-4.5,5.1c-0.6,4.9,7.2,10.5,11.6,8.6c2.3-1,10.6-9.1,8.1-11.5    C409.9,304.2,402.4,302.9,397.4,304.7z"></path>		<path class="st2" d="M425.5,317.9c-1.8-0.1-3.7,0.1-5,0.3c-1.9,0.3-4.6,0.6-4.8,2.8c-0.3,2.5,4,4.9,6,5c2.6,0.1,10.2-1.7,9.9-3.9    C431.2,319.2,428.4,318.1,425.5,317.9z"></path>		<path class="st2" d="M424.3,305.4c-2.3,0.2-4.2,1.2-2.8,2.8c2.8,3.1,8.5,2,8.5,0.5C430.2,306.1,427,305.2,424.3,305.4z"></path>		<path class="st2" d="M428.1,337c-2.2-0.4-4.3,0.6-3.9,3.4c0.6,3.4,6.8,5.2,7.6,3.4C433.6,340,430.8,337.4,428.1,337z"></path>		<path class="st3" d="M375.1,292.5c0,0,8.7-2.9,11.7,3.6"></path>		<path class="st3" d="M392.5,288.3c0,0,4.4,1.4,5,3.3"></path>		<path class="st3" d="M403.6,283.3c0,0,4.4,1.4,5,3.3"></path>		<path class="st3" d="M374.8,312.2c0,0-6-11.9-8.8-9.4c-2.7,2.5-2.1,4.4,1.5,6.4c3.6,2.1,9.7,6.1,11.5,7    C380.8,317.1,374.8,312.2,374.8,312.2z"></path>	</g>	<g>		<path class="st2" d="M429.3,69.5c0,22.3-16.6,19.3-37,19.3c-20.4,0-37,4.2-37-19.3c0-13.7,16.6-24.8,37-24.8    C412.7,44.7,429.3,55.8,429.3,69.5z"></path>		<path class="st2" d="M429.1,111.2c0.1,0.8,0.2,1.7,0.2,2.7c0,9.9-16.6,14.1-37,14.1c-20.4,0-37-4.2-37-14.1c0-1.7-0.1-2.3,0.3-3.6    "></path>		<path class="st2" d="M429.2,74.7c0,0,1.5,3,3.6,6.2c2.1,3.3-1.8,3.6-4.1,7.1c-2.4,3.6-0.6,5.9-6.8,5.3c-6.2-0.6-5.9-3.9-9.5-1.8    c-3.6,2.1-6.8,5-10.7,2.7c-3.9-2.4-5.9-2.7-8.6-0.9c-2.7,1.8-5.9,4.4-10.4,1.5c-4.4-3-5.9-2.1-9.8,1.2c-3.9,3.3-8.3,1.5-9.5-2.7    c-1.2-4.1-2.4-2.4-5.9-5.3c-3.6-3-0.3-6.5-0.3-6.5"></path>		<path class="st3" d="M390.3,56.6c0,0-1.2,1.4-2.8,1.4c-1.5,0-2.8-1.4-2.8-1.4s1.2-1.4,2.8-1.4C389.1,55.2,390.3,56.6,390.3,56.6z"></path>		<path class="st3" d="M402.4,53.1c0,0-1.2,1.4-2.8,1.4s-2.8-1.4-2.8-1.4s1.2-1.4,2.8-1.4S402.4,53.1,402.4,53.1z"></path>		<path class="st3" d="M410.5,51.5c0,0-1.2,1.4-2.8,1.4c-1.5,0-2.8-1.4-2.8-1.4s1.2-1.4,2.8-1.4C409.3,50,410.5,51.5,410.5,51.5z"></path>		<path class="st3" d="M379.4,53.1c0,0-1.2,1.4-2.8,1.4c-1.5,0-2.8-1.4-2.8-1.4s1.2-1.4,2.8-1.4C378.1,51.7,379.4,53.1,379.4,53.1z"></path>		<path class="st3" d="M373.6,59.1c0,0-1.2,1.4-2.8,1.4c-1.5,0-2.8-1.4-2.8-1.4s1.2-1.4,2.8-1.4C372.3,57.7,373.6,59.1,373.6,59.1z"></path>		<path class="st3" d="M385.3,61.9c0,0-1.2,1.4-2.8,1.4c-1.5,0-2.8-1.4-2.8-1.4s1.2-1.4,2.8-1.4C384,60.5,385.3,61.9,385.3,61.9z"></path>		<path class="st3" d="M366.4,63.4c0,0-1.2,1.4-2.8,1.4c-1.5,0-2.8-1.4-2.8-1.4s1.2-1.4,2.8-1.4C365.2,62,366.4,63.4,366.4,63.4z"></path>		<path class="st3" d="M391,50.2c0,0-1.2,1.4-2.8,1.4c-1.5,0-2.8-1.4-2.8-1.4s1.2-1.4,2.8-1.4C389.8,48.7,391,50.2,391,50.2z"></path>		<path class="st3" d="M410.3,57c0,0-1.2,1.4-2.8,1.4s-2.8-1.4-2.8-1.4s1.2-1.4,2.8-1.4S410.3,57,410.3,57z"></path>		<path class="st3" d="M416.5,60.7c0,0-1.2,1.4-2.8,1.4c-1.5,0-2.8-1.4-2.8-1.4s1.2-1.4,2.8-1.4C415.2,59.3,416.5,60.7,416.5,60.7z"></path>		<path class="st3" d="M399.8,60.8c0,0-1.2,1.4-2.8,1.4c-1.5,0-2.8-1.4-2.8-1.4s1.2-1.4,2.8-1.4C398.5,59.4,399.8,60.8,399.8,60.8z"></path>		<path class="st2" d="M372.9,96c0,0,1.7,8.1,11.4,9.3c9.7,1.2,17.2-6.2,16-11.8"></path>		<path class="st2" d="M374.9,95.2c0,0,3.5,3.8,5,4c1.4,0.2,3.5-3.9,3.5-3.9"></path>		<path class="st2" d="M384.8,95.9c0,0-0.7,4,0.2,4.9c0.9,0.9,4.7,1.9,6.6,0.5c1.9-1.4-1.7-5.9-1.7-5.9"></path>		<path class="st2" d="M392,94.2c0,0,1.6,3.8,3.2,3.8c1.7,0,3.9-4,2.7-5.7"></path>		<path class="st2" d="M412.3,91.6c0,0,2.7,5.7,10.8,6.7c8,0.9,4.7-8.3,4.7-8.3"></path>		<path class="st2" d="M416.9,92.3c0,0,3.1,2.6,6.1,3.1c3.1,0.5,2.6-2.6,2.6-2.6"></path>		<path class="st2" d="M357.5,88c0,0-4.4,1.7-1.8,6c2.6,4.3,6.4,4,8.7,4c2.4,0,6.1,1.7,7.6,1.7c1.4,0,3,0.5,3,0.5"></path>		<path class="st2" d="M425.1,98.2c0,0-2.9,1.9-6,2.2c-3.1,0.2-9,0.5-13.7,0.5c-4.7,0-8.5,1.1-8.5,1.1"></path>		<path class="st2" d="M427.8,96.8c0,0,5.7-1.2,6.1-5.2c0.5-4-4.3-5.4-4.3-5.4"></path>		<path class="st2" d="M356.9,95.6c-0.3,0.6-0.7,1.3-1.1,2c-1.9,3.4,1.9,3.5,4.5,6.9c2.5,3.4,0.9,5.9,7.1,5c6.2-0.9,5.7-4.1,9.4-2.2    c3.6,1.9,7,4.7,10.8,2.2c3.7-2.5,5.8-2.9,8.5-1.3c2.7,1.7,6.1,4.2,10.4,1c4.3-3.2,5.8-2.3,9.8,0.7c4,3.1,8.4,1.1,9.4-3.1    c1-4.2,2.3-2.5,5.7-5.6c3.4-3.1,0-6.5,0-6.5"></path>		<path class="st2" d="M416.2,110c0,0-1.4,8.2-11,9.8c-9.6,1.6-17.4-5.4-16.5-11.1"></path>		<path class="st2" d="M414.2,109.2c0,0-3.4,3.9-4.8,4.2c-1.4,0.3-3.7-3.7-3.7-3.7"></path>		<path class="st2" d="M404.4,110.4c0,0,0.9,4,0,4.9c-0.9,1-4.6,2.1-6.6,0.8c-2-1.3,1.4-6,1.4-6"></path>		<path class="st2" d="M397.1,109.1c0,0-1.4,3.9-3.1,3.9c-1.7,0.1-4-3.8-2.9-5.5"></path>		<path class="st2" d="M376.7,107.4c0,0-2.5,5.8-10.5,7.1c-8,1.3-5.1-8-5.1-8"></path>		<path class="st2" d="M372.1,108.3c0,0-3,2.7-6,3.4c-3,0.6-2.7-2.5-2.7-2.5"></path>		<path class="st2" d="M431.3,101.3c0,0,4.4,1.5,2,5.9c-2.4,4.4-6.2,4.3-8.6,4.4c-2.4,0.1-6.1,1.9-7.5,2s-3,0.6-3,0.6"></path>		<path class="st2" d="M364.2,114.6c0,0,3,1.8,6.1,1.9c3.1,0.1,9,0.1,13.7-0.2s8.5,0.7,8.5,0.7"></path>		<path class="st2" d="M361.4,113.3c0,0-5.7-0.9-6.4-4.9c-0.7-4,4-5.6,4-5.6"></path>		<path class="st3" d="M356.2,78.2c0,0,0.9,0.7,4.7,2.4c3.8,1.7,4,0.9,8,0.9c4,0,4,2.1,9.2,2.1c5.2,0,6.6-3.1,10.4-2.1    c3.8,0.9,3.1,2.4,9.5,1.7c6.4-0.7,8.7-1.9,11.3-1.7c2.6,0.2,2.8,2.6,7.8,0c5-2.6,9.2-4.5,11.3-4.3"></path>	</g>	<g>		<path class="st2" d="M382,268.4c0,0,1-4.4,2.1-6.4c1.1-1.9,4.3-4.4,10.9-6.4c6.5-2,71.6-17.4,71.8-17.5c5.7-1.4,2.3,5.6,1,8    c-7,12.5-24.7,17.4-37.7,20.6c-12,3-24.3,4.6-36.6,5.3c-13,0.7-8.9-1.6-8.9-1.6"></path>		<path class="st2" d="M384.1,262.1c0,0-7.1,3.6-11.6,2.6c-4.4-1-10.2-7.6-6.4-13.8c3.8-6.1,23.4-10.1,26.9-11.6    c3.5-1.6,44.9-11.7,49.1-12.7c8.4-2.1,18.1-3.1,22.2-1.5c5.8,2.2,6.4,10.4,2.3,13.2"></path>		<path class="st2" d="M366.1,250.9c0,0-2.1-9,5.2-16.3c7.2-7.3,15.9-6.3,25.2-7.5c9.3-1.2,42.5-11.1,48.8-11.9    c12.8-1.7,14.7,5.5,13.4,8.7"></path>		<path class="st2" d="M377.4,244.5c0,0,2-5.1,11.1-8c9.1-2.9,15.7-2.4,30.8-6.5c15.1-4.1,23-10.5,30-9.6c6.9,1,6.6,3,6.6,3"></path>		<path class="st2" d="M372.5,264.6c0,0,2.4,7,18.5,7.5"></path>		<g>			<path class="st2" d="M383.3,255.6c-2.9,0-5.9-0.3-7.7-0.6c-1.1-0.2-1.9-1.2-1.8-2.3c0.2-1.1,1.2-1.9,2.3-1.8     c5.1,0.7,10.4,0.7,11.9,0c-0.1-0.7-0.3-1.5-0.5-2.2c-0.6-2.2-1.3-4.8,0.2-6.6c1.4-1.7,3.9-1.5,5.5-1.3c2.9,0.4,5.2,1.4,7.1,2.1     c3.2,1.3,4.4,1.7,6,0.4c1.3-1.1,1.6-2.3,2.1-3.7c0.7-2.3,1.6-5.4,7.1-5.7c4.2-0.2,7.1,0.9,9.6,1.8c1.9,0.7,3.7,1.4,5.9,1.5     c0.1,0,0.1,0,0.2,0c0-0.5-0.1-1.3-0.2-1.8c-0.3-1.8-0.6-3.9,0.6-5.6c0.7-0.9,1.8-1.5,3.2-1.6c3.7-0.3,6.7,0.7,9.5,1.8     c1.7,0.6,3.3,1.2,5.1,1.5c0.8,0.1,0.9,0.1,1.4-1.6c0.5-1.6,1.3-4.3,4.4-4.6c4.1-0.3,6,0.3,6.3,0.5c1.1,0.4,1.6,1.6,1.2,2.7     c-0.4,1.1-1.6,1.6-2.7,1.2c0,0,0,0,0,0c0,0-1.4-0.4-4.4-0.2c-0.1,0-0.2,0-0.2,0c-0.2,0.1-0.5,1.1-0.6,1.6     c-0.5,1.7-1.5,5.2-5.9,4.6c-2.2-0.3-4.1-1-5.9-1.7c-2.5-0.9-4.9-1.8-7.7-1.5c-0.1,0-0.2,0-0.3,0.1c-0.1,0.5,0.1,1.6,0.2,2.3     c0.3,1.8,0.6,3.9-0.7,5.4c-0.8,0.9-2.1,1.3-3.6,1.2c-2.9-0.2-5-1-7.1-1.8c-2.4-0.9-4.7-1.7-8-1.6c-2.5,0.1-2.7,0.7-3.3,2.7     c-0.5,1.6-1.2,3.8-3.4,5.7c-3.6,3-7,1.7-10.2,0.3c-1.8-0.8-3.7-1.5-6.1-1.9c-1-0.1-1.5-0.1-1.8,0c0,0.6,0.3,1.9,0.6,2.7     c0.3,1.1,0.7,2.3,0.7,3.5c0.1,1-0.3,2-1.1,2.8C389.7,255.1,386.5,255.6,383.3,255.6z"></path>		</g>		<path class="st3" d="M370.5,253.9c0,0-2.6,1.1-2.4,3.4c0,0-1.5,0.9-2.1-1"></path>		<path class="st3" d="M368.1,258.3c0,0-0.2,1.5,2,1.5"></path>	</g>	<g>		<circle class="st2" cx="68.2" cy="205.8" r="23.5"></circle>		<path class="st2" d="M47.2,213.4c3.1,8.6,11.3,14.7,21,14.7c7.7,0,14.5-3.9,18.5-9.9"></path>		<path class="st2" d="M46.2,209.7c0.1,0.7,0.3,1.4,0.5,2.1"></path>		<path class="st2" d="M63.8,183.9c-10.2,2-18,11-18,21.9c0,0.9,0.1,1.9,0.2,2.8"></path>		<path class="st2" d="M87.6,216.9c1.9-3.3,2.9-7,2.9-11.1c0-12.3-10-22.3-22.3-22.3c-0.9,0-1.9,0.1-2.8,0.2"></path>		<path class="st2" d="M69.8,186.8c1.6-0.1,3,0,4.6,0.5c2.2,0.6,3.6,2.4,3.6,3s-0.2,1.2-0.6,2.2c-0.4,1-7.8,11.6-7.8,11.6    s-1.1,0.1-1.2-0.6l-2.9-15.1c0,0,0-1,2.4-1.3"></path>		<path class="st2" d="M62.1,200.9l-8.2-5.6c0,0-0.7-0.7,0.8-2.6c1.4-1.9,2.8-3.3,4.7-4.4c1.9-1.1,4.2-0.8,4.7-0.4    c0.4,0.4,0.7,1,1.1,1.9c0.4,0.9,2.7,13.7,2.7,13.7s-0.7,0.8-1.3,0.4l-3.4-2.3"></path>		<path class="st2" d="M49.8,198.9c0.7-1.8,2.2-2.9,2.8-2.9c0.6,0,1.2,0.2,2.2,0.6c1,0.4,11.6,7.8,11.6,7.8s0.1,1.1-0.6,1.2    l-15.1,2.9c0,0-1,0-1.3-2.4c-0.3-1.8-0.3-3.3-0.1-4.9"></path>		<path class="st2" d="M62.4,213.1l-4.7,7c0,0-0.7,0.7-2.6-0.8s-3.3-2.8-4.4-4.7c-1.1-1.9-0.8-4.2-0.4-4.7s1-0.7,2-1.1    c0.9-0.4,13.7-2.7,13.7-2.7s0.8,0.7,0.4,1.3l-2.9,4.3"></path>		<path class="st2" d="M65.7,224.9c-1.3,0-2.4-0.1-3.7-0.5c-2.2-0.6-3.6-2.4-3.6-3c0-0.6,0.2-1.2,0.6-2.2c0.4-1,7.8-11.6,7.8-11.6    s1.1-0.1,1.2,0.6l2.9,15.1c0,0,0,1-2.4,1.3c-0.5,0.1-0.9,0.1-1.3,0.2"></path>		<path class="st2" d="M69.7,207.7l12.7,8.6c0,0,0.7,0.7-0.8,2.6c-1.4,1.9-2.8,3.3-4.7,4.4c-1.9,1.1-4.2,0.8-4.7,0.4    c-0.4-0.4-0.7-1-1.1-1.9c-0.4-0.9-2.7-13.7-2.7-13.7S69.1,207.3,69.7,207.7z"></path>		<path class="st2" d="M70.6,206l15.1-2.9c0,0,1,0,1.3,2.4c0.4,2.4,0.4,4.3-0.2,6.5c-0.6,2.2-2.4,3.6-3,3.6c-0.6,0-1.2-0.2-2.2-0.6    c-1-0.4-11.6-7.8-11.6-7.8S69.9,206.2,70.6,206z"></path>		<path class="st2" d="M84.7,195.5c0.4,0.5,0.7,1,1.1,1.6c1.1,1.9,0.8,4.2,0.4,4.7c-0.4,0.4-1,0.7-1.9,1.1    c-0.9,0.4-13.7,2.7-13.7,2.7s-0.8-0.7-0.4-1.3l8.6-12.7c0,0,0.7-0.7,2.6,0.8c0.8,0.6,1.5,1.1,2.1,1.7"></path>	</g>	<g>		<circle class="st2" cx="139.6" cy="81.2" r="32.8"></circle>		<path class="st2" d="M110.3,91.8c4.3,12,15.8,20.5,29.2,20.5c10.8,0,20.2-5.5,25.8-13.8"></path>		<path class="st2" d="M109,86.6c0.2,1,0.4,2,0.7,3"></path>		<path class="st2" d="M133.6,50.7c-14.3,2.8-25,15.4-25,30.5c0,1.3,0.1,2.6,0.2,3.9"></path>		<path class="st2" d="M166.6,96.6c2.6-4.5,4.1-9.8,4.1-15.4c0-17.2-13.9-31.1-31.1-31.1c-1.3,0-2.6,0.1-3.8,0.2"></path>		<path class="st2" d="M141.9,54.7c2.2-0.1,4.2,0,6.4,0.6c3,0.8,5,3.3,5,4.2c0,0.8-0.3,1.7-0.8,3c-0.5,1.3-10.9,16.2-10.9,16.2    s-1.5,0.2-1.7-0.8l-4-21.1c0,0,0-1.3,3.3-1.8"></path>		<path class="st2" d="M131.2,74.3l-11.4-7.8c0,0-0.9-0.9,1.1-3.7c2-2.7,3.9-4.6,6.6-6.1c2.7-1.5,5.9-1.2,6.5-0.6    c0.6,0.6,0.9,1.4,1.5,2.7c0.6,1.3,3.8,19.1,3.8,19.1s-0.9,1.2-1.8,0.6l-4.7-3.2"></path>		<path class="st2" d="M114,71.6c1-2.5,3.1-4.1,3.9-4.1c0.8,0,1.7,0.3,3,0.8c1.3,0.5,16.2,10.9,16.2,10.9s0.2,1.5-0.8,1.7l-21.1,4    c0,0-1.3,0-1.8-3.3c-0.4-2.5-0.5-4.6-0.1-6.8"></path>		<path class="st2" d="M131.5,91.4l-6.6,9.7c0,0-0.9,0.9-3.7-1.1c-2.7-2-4.6-3.9-6.1-6.6c-1.5-2.7-1.2-5.9-0.6-6.5    c0.6-0.6,1.4-0.9,2.7-1.5c1.3-0.6,19.1-3.8,19.1-3.8s1.2,0.9,0.6,1.8l-4.1,6"></path>		<path class="st2" d="M136.1,107.8c-1.7,0-3.4-0.2-5.2-0.7c-3-0.8-5-3.3-5-4.2c0-0.8,0.3-1.7,0.8-3c0.5-1.3,10.9-16.2,10.9-16.2    s1.5-0.2,1.7,0.8l4,21.1c0,0,0,1.3-3.3,1.8c-0.6,0.1-1.3,0.2-1.8,0.2"></path>		<path class="st2" d="M141.7,83.8l17.7,12.1c0,0,0.9,0.9-1.1,3.7c-2,2.7-3.9,4.6-6.6,6.1c-2.7,1.5-5.9,1.2-6.5,0.6    c-0.6-0.6-0.9-1.4-1.5-2.7c-0.6-1.3-3.8-19.1-3.8-19.1S140.9,83.2,141.7,83.8z"></path>		<path class="st2" d="M142.9,81.6l21.1-4c0,0,1.3,0,1.8,3.3c0.5,3.3,0.5,6-0.3,9s-3.3,5-4.2,5c-0.8,0-1.7-0.3-3-0.8    c-1.3-0.5-16.2-10.9-16.2-10.9S141.9,81.7,142.9,81.6z"></path>		<path class="st2" d="M162.6,66.8c0.5,0.7,1,1.4,1.5,2.2c1.5,2.7,1.2,5.9,0.6,6.5c-0.6,0.6-1.4,0.9-2.7,1.5    c-1.3,0.6-19.1,3.8-19.1,3.8s-1.2-0.9-0.6-1.8l12.1-17.7c0,0,0.9-0.9,3.7,1.1c1.1,0.8,2,1.6,2.9,2.4"></path>	</g>	<g>		<path class="st2" d="M106.3,366.6c0,0-1,2.4-1.2,3c-0.2,0.6,0,1.9,0,1.9l0.8-0.4l0.1,2.4l1.2-0.2l0.8,1.9l1-1.7l0.7,0.8    c0,0,1.2-1.3,1.1-1.8c0-0.5,2,0.5,2,0.5s1.5-2.7,1.4-3.7c-0.1-0.9,0.5-1.8,0.5-1.8l1,1.8l1.7-0.9l0.8-0.8l1,1.5l0.8-2.6l0.2-1.7    l1,1.5l1.6,1l0.9-3.4l-0.4-1.3l-0.4-0.8l1.1-0.3c0,0-0.3-1.1-0.5-1.5c-0.2-0.4-0.5-1.2-0.5-1.2l-0.1-1.2l0.6-0.4l1.1-0.3l-0.4-1.3    l1.3,0.1l1.2,1.7l2.2-0.8l0.8,0.8l-0.1,1.2l0.4,0.6l-0.4,1.6c0,0-0.5,0.6-0.4,1c0.2,0.4,0.1,2,0.1,2l-0.2,0.7l2.3-1l0.8-0.7    l0.6,0.5c0,0,1,0.2,1.6-0.3c0.6-0.4,2.1-2.4,2.1-2.4l0.9,1.2l0.5-1.5l0-2.1l-1-2.9l1.1,0l2.1,2.1l2.1,1.1l-0.2-1.8l1.9,0.4    l1.6-0.3l-1.6-2.9l1.4-0.5l-1.4-2l-0.9-1l-1.5-0.6l-1.6-1.5c0,0-1.2-0.4,0.7-2.7c1.9-2.3,5.1-5.3,5.1-5.3s11.3-5.4,19.7-9    s13.2-7,16.8-11.2c3.6-4.2,5.7-8.5,5.8-11.7c0.1-3.3-2.5-9.9-3.1-10.6c-0.6-0.7-0.8-1.5-8.6-2.9c-7.8-1.3-19.3,1.9-23.7,3.9    c-4.4,2-18.1,9.5-19.5,10.3c-1.4,0.8-5,2.9-5,2.9l1.1-3.9c0,0-0.7-0.2-0.8-1.1c-0.1-0.9-0.5,1.7-0.5,1.7l-0.6-2.8l-0.1-1.4    l-1.2-0.1l-0.4-1.3l-0.9-2.8l-1.2,0.2l-0.3-0.7l-2,1.9l-0.4-0.8l-1.6-0.7l-0.4,2.3l1.5,2.5l-2.8-2.6l-2-1l-1.2,0.1l0.5,1.2    l-1.6-0.3l0.2,0.5l-1.4,1.2l-0.3,0.8l-0.9-2.3l-1.4,1.8l-0.2-1.2c0,0-0.7-1.5-0.8-1.9c-0.2-0.4-1.7-2.6-1.7-2.6l-0.4,1.3l-0.6-0.9    l-1.7-0.7l-0.7-0.5l-0.9,1.9l-0.9,0.4c0,0-0.2,1-0.1,1.5c0,0.5,0.2,2.2,0.2,2.2s0.5,1.4,0.5,1.9c0,0.5,0.6,1.8,0.6,1.8l-1.8,0.3    l-1,0l-1.3,0.4l0.9,1.3l-1.6,1.2l1.9,0.9l0.8,0.4L100,313l1.7,0.7l1.6,0.3l-0.8,0.8l-1.7,0.1l-2.1-0.8c0,0-3-2.4-3.2-2.8    c-0.2-0.4-1.1-1.7-1.1-1.7l-1.1,0.8l-1.2-0.4l-0.6,0.4l-2.3-1.5l-0.4,2.3l-1.7,0.8l0.2,0.7l-2.1,0.6l-3.4,1l-1.1,0.8l1.9,1.1    l1,0.7l-1,0.6l1.4,0.5l0.7,0.5l-0.4,0.6l1.1,1.1c0,0-1.9,0.4-2.4,0.3c-0.5-0.1-1.6-0.1-1.6-0.1l-1.1,0.5l0.8,0.6l-1.9,0.8    l-1.2,0.9l-2.3,1.3l-0.9,0.4l0.6,0.7l-2.4,1.7l-0.8,1l1.2,0.4l1.2,0.4l1.7,0.5l1.7,0.5l0.6,0.9l1.1,1.1l1.8,1.6l0.3,0.7l-1.5,1    l-1.1-1.1l-1.7-1l-0.8-0.3l-1.2,0.1l-2.3,0.6c0,0,0,0.3,0.5,1.1c0.5,0.7-1,1.1-1,1.1l-1.1,0l2.1,0.8l1.1,1c0,0-1.9,0.5-2.5,0.8    c-0.7,0.3-1.5,1-1.5,1l0.4,0.8l-1.6,1l-2.2,2.3l1.4,0.5c0,0-0.5,0.6-1,0.9s2.1,0.5,2.1,0.5s1.3,0.7,1.8,0.5    c0.5-0.2,3.3-0.8,3.3-0.8l-1,1.7l2-0.9l0.4,0.5l1.8-0.6l0.7-0.3l-0.2,2.2l0.7-0.2l1.2-0.5l0.8-0.4l0.3,1.5l-1.5,2l0.2,1.2    c0,0-0.5,0.4-0.9,0.9c-0.4,0.5-0.5,1.4-0.5,1.4s1.1,0,1.8,0c0.7,0,2.2,0.2,2.6,0c0.4-0.2,0.7,1.6,0.7,1.6l0.9-0.2l2.8,0.2l3-1.8    l1.1-0.8l0.8-0.4l-1.4,2.2c0,0-1.1,1.1-1.5,1.3c-0.4,0.2-0.8,1-0.8,1l1.3,0.7l-3.7,1l0.5,0.7l-1.2,0.9c0,0,2.2,1.3,2.7,1.4    c0.5,0.1,2.2,0.2,2.2,0.2l-0.7,1l1.8-0.2l1.5-0.3l-0.1,1.5l1.9-1.2l1.6-1l0.1,4.3l2.1-1.1l-1.2,3.1l-1.2,4.1l1.9-1.2l1.9-0.8    l2-0.6l0.9-0.6L106.3,366.6z"></path>		<path class="st2" d="M122.9,341.3c0,0,4.3-1,10.4-2.8c5.7-1.7,12.9-4.1,19.6-7.1c13.7-6.1,21.5-15.7,23.5-17.6c2-1.9,5.7-7,5.7-7    l-0.3-2.4c0,0-1.8,0.2-1.5-0.5c0.4-0.6,0.7-1.3,0.7-1.3"></path>		<path class="st2" d="M176.3,300.3c0,0-10.4,1-18.9,3.8c-8.5,2.8-19.4,8.1-24.4,10.5c-5,2.4-14,7-14.9,7.5c-0.9,0.4-11,5.5-11,5.5    s-0.4,1.9-1.6,4.2c-1.2,2.3-1.6,4.2-2.2,5c-0.6,0.8-1.3,1.4-1.3,1.4l-0.5-1.4c0,0-1,2.4-1.5,2.7c-0.5,0.4-1.1,0.8-1.1,0.8    l-2.8,1.3l-0.8-0.3l0.5-1.8c0,0-2,1.5-2.4,1.7c-0.4,0.2-0.9,0.7-1.5,1c-0.5,0.2-1.7,0.9-2.6,1.3c-0.9,0.4-1.9,0.5-2.5,0.5    c-0.7,0-1.9,0-2.5,0.2c-0.6,0.1-1.8,0.2-1.8,0.2s-0.5,0.2,0.2-1.4c0.7-1.6,2.7-5.5,2.7-5.5s1.2-0.9,1.6-1c0.4-0.2,2.8-1.9,2.8-1.9    l1.3-0.7c0,0-1.2-0.2-0.8-0.8c0.4-0.5,2.4-0.4,2.9-0.3c0.5,0.1-0.4-1.3-0.4-1.3l1.3-0.7c-0.5-0.7-1.7-2.6-1.7-2.6l0.2-1    c0,0-0.4-0.8-0.8-1.1c-0.4-0.3-0.4-0.3-0.4-0.3s2.3-0.7,3.2-0.5c0.9,0.2,1.9,0.4,2.8,0.6c0.9,0.2,1.9,0.6,2.6,0.8    c0.7,0.2,1.8,0.5,2.3,0.4c0.5,0,1.2,0.4,2,0.1c0.8-0.4,2.4-0.4,3.7-1.5c1.3-1.1,5.8-3.9,6.5-4.5c0.7-0.6,3-2.2,3.8-2.5    c0.8-0.4,3-2,3-2s-3.5,1.2-5.4,1.3c-1.9,0-7.6-0.3-7.6-0.3s-2.9,0-3.6-0.3c-0.8-0.3-3.6-0.6-3.6-0.6s-1.9,0.7-2.5,0.9    c-0.5,0.2-0.8,1-1.3,1.8c-0.4,0.8-0.1,1.2-0.9,2c-0.8,0.8-2.9,2.1-2.9,2.1s-0.5,0.2-1.2,0.5c-0.7,0.3-1.7,0.1-1.7,0.1l0.6-1.9    l-1.8-0.5l0.4-1.2c0,0,0-0.7-0.9-1.3s-3-2.8-3-2.8l-1.2-0.9"></path>		<path class="st2" d="M103.6,315.7c0,0,0.6,0.1,1.4,0.1c1.2,0.1,3,0.3,3.9,0.4c1.4,0.2,3.3,0.1,4,0.3c0.7,0.2,1.8,0.1,2.4,0    c0.6-0.1,1.7-0.1,1.7-0.1l-5.2-1.3l-3.8,0.1l0-0.7l-2.6,0.5L103.6,315.7z"></path>		<path class="st2" d="M116.4,307.2l1.1,1.4l-1.9,0.5l1.1,1l-0.6,1.1l0.5,1.2l1.5,0.6l1.4,1.4l2.6-0.7c0,0-3.2,2.1-3.8,1.5    c-0.6-0.5-5.4-1.7-5.4-1.7s-1-2.3-0.5-3.3c0.5-1,1.2-2,1.9-2.5C115.2,307.3,116.4,307.2,116.4,307.2l-2.7-1.7l2-1.4l-1.8,0"></path>		<path class="st2" d="M127.3,311.8c0,0-2-0.1-2.6-1.2c-0.7-1.1-1.8-3.2-1.8-3.2l0.5,2.5l-6.4-5.4l5.9,6.3l-3.9,0.9    c0,0,4-0.4,4.5-0.4c0.5,0,1.7,0.9,1.7,0.9l0.9,0.6l-2.5,1.3"></path>		<path class="st2" d="M113,313.6c0,0-2.3-0.1-2.6-0.9c-0.4-0.8,0.1-4.7,0.1-4.7s-1.3,2.2-1.3,2.8c0,0.7,0.1,1.4,0.1,1.4    s-3.6-3.5-4.1-4.6c-0.5-1.1-1.6-4.9-1.6-4.9s1.2,5.2,1.6,6.2c0.4,0.9,1,1.8,1.6,2.2c0.6,0.4,1.5,1.1,2,1.5c0.5,0.4,1.3,1,1.8,1.1    c0.5,0.1,1.9,0.9,1.9,0.9"></path>		<path class="st2" d="M99.7,315.7c0,0-5.1-1.1-5.8-1.2c-0.7-0.2-3.3,0.1-3.8-0.2c-0.4-0.3-2.8,0.3-3.2,0.3"></path>		<path class="st2" d="M97.9,315.7c0,0-1.9,1-3.3,1.5c-1.4,0.5-2.5,1.6-2.5,1.6"></path>		<path class="st2" d="M90,317.5c0,0,2.1-1.3,2.5-1.6c0.3-0.3,1.5-0.8,1.5-0.8l0.8,0l0.6-0.1"></path>		<path class="st2" d="M88.3,340.1c0,0,4.3-3.7,6.9-4.9c2.7-1.2,4.5-3.1,5.6-3.9c1.1-0.8,4.5-3.3,4.9-3.5"></path>		<path class="st2" d="M101.4,330.9c0,0,0,1-0.4,2.7c-0.3,1.8-0.5,3.4-0.9,3.6c-0.4,0.2-1.9,2.3-1.9,2.3"></path>		<path class="st2" d="M95.2,335.3c0,0-0.8,1-1.4,1.9s-1.3,2.8-1.3,2.8"></path>		<path class="st2" d="M102.8,329.5c0,0-2-0.2-3.2-0.3c-1.2-0.1-2.3-0.1-2.9-0.5"></path>		<path class="st2" d="M91.2,355.6l2.8-0.3l3.9-3.8c0,0,1.9-1.2,2.2-1.6c0.3-0.4,2-3.3,2-3.3l1.6-2.2l-1.2,0.1l1.4-1.9l1.1-1.9    l0.9-0.4l-2.6-0.1l0.5-1.7l0.9-0.9c0,0-0.2,1-2.2,2.6c-2,1.5-4.5,4.6-5,5.3c-0.5,0.7-1.3,2.4-1.7,3c-0.4,0.6-0.4,2.3-0.8,2.6    c-0.3,0.3-1,1.3-1,1.3"></path>		<path class="st2" d="M83.5,350.9l2-0.4c0,0,6.3-2.8,8.1-3.6c1.9-0.8,5.5-4.1,5.5-4.1s-3.3,2-4.9,2c-1.6,0.1-5.5,0.5-5.5,0.5    l-1.3,0.3"></path>		<path class="st2" d="M99.2,342.8c0,0,2.5-1.6,4.5-4.3c2-2.7,3.2-4.3,6.6-6.8c3.4-2.5,5.9-3.6,8.2-4.6c2.3-1,5.4-2.6,5.7-2.9    s1.8-0.6,2.7-1.1c0.9-0.4,2.5-1.1,3-1.5c0.5-0.4,3.5-2.2,3.5-2.2s-5.6,1.4-6.4,1.1c-0.8-0.3-3.6-0.3-3.6-0.3l-1.6,0.4l-1.4,0.1"></path>		<path class="st2" d="M114.2,321.2c0,0-4.8-0.7-6.2-0.6c-1.4,0.1-6.3,2.3-7,2.5c-0.7,0.2-3.2,1.1-3.2,1.1l1.4,1.6"></path>		<path class="st2" d="M96.1,321.6l0.9,1c0,0,5.1-2.3,6.9-2.4c1.8-0.2,4.7-1,6.1-0.7s4.3,0,4.3,0l2.1,0"></path>		<polyline class="st2" points="90.7,333.1 91,329.8 89.6,330.3 89.5,327.6 88,328.1 87.6,326.8 85.5,328.9 85,327.1 83.3,328.4     82.1,326.4 81.4,327.2 79.8,326.3 79.8,327.4 78.2,328 75.9,327.9 77.5,329.7   "></polyline>		<path class="st2" d="M86.9,336.4c0,0-4.7-0.1-7.2,1.3c-2.5,1.5-5,3.5-5,3.5"></path>		<path class="st2" d="M87.3,335.9c0,0-3.2-1.1-4.7-4.1"></path>		<path class="st2" d="M142.2,342c0,0-1,1.3-3.4,5s-2.3,5.5-3.2,7.2s-1.1,3.4-2,4.4c-1,1.1-1.4,1.6-1.4,1.6"></path>		<path class="st2" d="M138.5,347.6c0,0,0.1,3.1,1.8,5.1"></path>		<path class="st2" d="M141.6,342.2c0,0-5.9-0.1-9.9,0.4c-3.9,0.5-8,1.4-8,1.4l1,3.4l-0.9,2l-0.4,1.2l-1.2,1.2l-1-0.2l-1.4,3.2    l-1.4-3.9l-0.7,4.9c0,0-0.1-4.3-0.1-5.2c0-1,0.2-2.2,0.6-3c0.4-0.8,1.1-3.2,1.1-3.2l-2.6,4.7l-1.5,2.4l-1.3,1.8l-1.2,0.5l-0.6-3.6    l-2.2,3l-2.9,0c0,0,0.4-4,0.9-4.9c0.4-0.8-2.8,1.7-2.8,1.7s1.8-3.1,2.1-3.5c0.3-0.4,0.6-1.1,1.5-2.1c0.8-1,1.7-2.2,1.7-2.2    l0.6-0.4l-1.6-0.3l0.5-1.4l-2.6-1.2l-1.9-0.9l1.1-0.5l-0.1-1.2l2.2-0.5l2.1-1c0,0-0.2-0.7-0.3-1.1c-0.2-0.4,0.9-0.6,1.5-0.2    c0.6,0.4,0.5,0.1,2.6,1.1c2,1,4,1.4,4.6,1.6c0.6,0.2,2.3,0.2,2.3,0.2s1.1,0.3,4.2-2c3.1-2.4,9.1-7.3,9.1-7.3s9.8-7.7,19.8-13.8    c9.9-6,16.2-9.2,18.3-10.6c2.1-1.4,4.6-2.7,4.6-2.7"></path>		<path class="st2" d="M123.1,343.6c0,0-1.6-1.4,0.4-3.8c1.9-2.5,12.9-8.3,19.2-13.6s29-14.1,31.7-15c2.7-0.9,4.3-1.4,4.3-1.4"></path>		<path class="st2" d="M124.3,319.1c0,0,9.9-1.5,16.6-4.7c6.7-3.2,14.1-7.6,18-10.5"></path>		<path class="st2" d="M162.4,326.3c0,0-14.5,2.2-18.2,3.3c-3.6,1.2-5.1,2.1-5.1,2.1l-1.1,5"></path>		<path class="st2" d="M128.5,339.3l-2-1c0,0,4.6-2.7,5-2.9c0.4-0.2,1.7-1.2,1.7-1.2l-1.3,2.5l1.7-0.6l0.2,2"></path>		<polyline class="st2" points="119.2,336.4 125.2,332.3 115.9,335   "></polyline>		<path class="st2" d="M151.5,321c0,0,8.2-1.7,14-4.4c5.9-2.6,7.1-4.8,7.1-4.8"></path>		<path class="st2" d="M113.6,353.8c0,0,1.5,2.7,1.4,4.5c-0.1,1.8,0.4,4.1-0.4,5.6c-0.8,1.5-2.3,3.9-2.3,3.9l0.1-2.7l-0.9,1.2l0-5.1    l-1.6,1.8l-0.4,3.1l-1.8,3.2l-0.3-2.6l-1.1,0.5l-0.5-1.5"></path>		<polyline class="st2" points="100.4,362.6 98.9,362.4 101,359.4 98.9,359.2 102.9,356.8 103.2,355.7 102,356.2 103.8,354.9     102.7,354.6 104.8,353.5 105.6,353.2 106.5,353   "></polyline>		<path class="st2" d="M120.9,338.6c0,0-2.5,2.4-3.6,4.6c-1.1,2.3-3,6-3,6"></path>		<path class="st2" d="M118.4,340.9c0,0-0.6-0.2-3.5-1.8c-2.8-1.6-3.8-1.7-3.8-1.7"></path>		<path class="st2" d="M120.4,339.4c0,0-0.1,1.8,0.6,3.7c0.6,1.8,0.8,5.8,0.5,6.3"></path>		<path class="st2" d="M117.3,343.2c0,0-3.1,2.1-5.2,3.4"></path>		<path class="st2" d="M111.1,355.1c0,0-2.2,5.1-4.1,6.6c-2,1.6-5,3.1-5,3.1l-1.3,1.8"></path>		<path class="st2" d="M110.5,356.2c0,0-2.8,1.6-4.6,2.4c-1.8,0.8-2.5,1.1-2.5,1.1"></path>	</g>	<g>		<path class="st2" d="M114.7,177.1c0,0-0.2,0.1-1.9-0.1c-1.7-0.2-0.8-2.5-1.5-2.9c-0.7-0.4-4.8,0.4-4.8,0.4s3.4-0.1,3.7,0    c0.3,0.1,0.3,2.3,0.3,2.9c0,0.6,2.5,1.2,3.5,1.2c1,0,1.8,0.1,1.8,0.1s-0.7,0.2-0.8,1.5c-0.1,1.2-0.7,1.9-1.5,2    c-0.8,0.1-2.9,0.8-2.9,1.7c0,0,1-0.7,2-0.7c1,0,2.6,0.6,3-0.2c0.4-0.8,1.2-2.8,1.2-2.8s1,0.8,1.9,0.8c0.9,0,2.7-0.7,3-0.9    c0.3-0.2,2.3-1.9,2.5-2.5c0.1-0.6,0.3-2.2,0.3-2.2s0.7-1.7,1.3-2.2c0.7-0.6,1.5-1.8,1.5-2.6s-0.3-2.2-0.8-2.7    c-0.4-0.4-1.6-0.9-1.9-0.9c-0.3,0-1.6,0-1.6,0s1.8,0.7,2.2,1.1c0.4,0.4,0.4,1.6,0.4,1.6s-0.4,1.6-0.8,1.8c-0.3,0.2-1,0.7-1,0.7    s-0.6,0.6-0.9,0.9c-0.3,0.3-1.3,1.1-1.3,1.1s-0.7-1.3-0.7-2.3c0-1,0-3,0-3.4c0-0.3,0.1-1.6,0.1-1.6v-1.2l-0.2-0.4    c0,0-1.3,2.7-1.5,3.2c-0.1,0.6-0.6,1.2-0.9,1.9c-0.3,0.7-0.8,1.9-0.8,1.9l-0.3,1.2c-0.8,0.9-1.3,1.1-1.3,1.1s-0.4-1-0.4-1.7    s-0.1-1.8,0-2.2c0.1-0.4,0.1-2,0.1-2s-0.7,1.3-0.8,2c-0.1,0.7-0.1,0.9-0.3,1.7c-0.2,0.8-0.4,1.5-0.4,1.5s0,0.1-0.6,0.1    c-0.6,0-0.9-0.1-0.9-0.1l-0.3-1.5c0,0-0.9-0.7-1.5-1.1c-0.6-0.4-1.6-1.1-1.6-1.9c0-0.8,0.7-2.9,0.7-2.9s-1.2,2.1-1.3,3.1    c-0.1,1,1,2.7,1.6,2.9c0.6,0.2,0.8,0.7,1.3,1.2c0.6,0.6,1.5,1.5,1.7,1.8C113.7,175.9,114.7,177.1,114.7,177.1z"></path>		<path class="st2" d="M124.2,178.1c0,0,0-1-0.1-1.8c-0.1-0.8-0.2-3.1-0.2-3.1s-1.6,4.4-2,5.5c-0.4,1.1-1,1.6-1.8,1.3    c-0.2-0.1-0.5-0.2-0.7-0.3c-0.6-0.3-1-0.9-1-1.6c0-0.5,0-1.1,0-1.5c0-1-0.7-2.7-0.7-2.7s0.6-0.8,1.2-0.3c0.7,0.4,1.6,3.4,1.7,4.2    c0.1,0.9,0,1.9,0,1.9"></path>		<path class="st2" d="M119.8,168c0,0-5-0.2-9.4,2.8"></path>		<path class="st2" d="M109,171.5c0,0-2.2,1.6-2.7,2.2c-0.4,0.7-0.9,1.5-0.9,1.5s-2.6,1.3-3.9,2.7c-1.3,1.3-2.9,5-3.2,9    c-0.3,4,0.3,7.4,0.9,8.4c0.6,1,1.5,2.7,1.5,2.7s1.3,5.8,5.4,9.2c4,3.4,9.5,5.5,19.1,4c9.6-1.5,12.7-2.9,17.1-7.1    c4.4-4.2,6-9.4,6-14.6c0-5.3-1.8-11.2-2.8-13c-1-1.8-2-3.2-2.3-3.5c-0.3-0.2-3-4.2-8.7-6.3c-5.7-2-9.3-1.5-10.7-0.9    c-1.5,0.6-2.3,1.1-2.3,1.1"></path>		<path class="st2" d="M115.3,191.6c0,0.5,0,0.9,0,1.5"></path>		<path class="st2" d="M118,181.6c0,0-2.4,1.9-2.7,8.7"></path>		<path class="st2" d="M132.1,181.1c0.5,0.5,1,1,1.4,1.7"></path>		<path class="st2" d="M123.7,178.5c0,0,3.7-0.5,7,1.6"></path>		<path class="st2" d="M115.1,179.7c0,0-5.8-0.7-10.5,3.8"></path>		<path class="st2" d="M130.7,170.9c0.9-0.3,2-0.6,3.1-0.8"></path>		<path class="st2" d="M124.6,175.4c0,0,1.6-2.6,5.2-4.2"></path>		<path class="st2" d="M117.7,174c0,0,0.7,0.9,1.5,0.7c0.8-0.2-0.2-1-0.2-1"></path>		<path class="st2" d="M114.3,173.9c0,0,0.1-0.2,0.6,0.6s0.3,1.5,0.7,1.8c0.3,0.3,1.8,1.5,1.8,1.5"></path>		<path class="st2" d="M121.8,174.2c0,0,0.2,0.1,0.2,0.6c0,0.4-1,1.7-1,1.7"></path>	</g>	<g>		<path class="st2" d="M118.9,246.2c0,0,0.3-5.2-5.6-8.2c-5.8-3-14-3.7-18.4-1.4c-4.4,2.3-8,6.6-7.4,12.2c0.5,5.6,3.8,10.5,8.3,12.6    c4.5,2.1,15.1-1.8,19.3-5.6C119.3,252,118.9,246.2,118.9,246.2z"></path>		<path class="st2" d="M132.9,225.3c0,0-19.3,2-31.9,6.2c-12.6,4.2-20.7,7.6-24.5,12.6c-3.8,5-7.2,13.3-5.7,18.3    c1.5,5,4.1,9.7,12.3,12.3c8.2,2.6,19.7,0.8,26.9-2.3c7.3-3.1,20.6-15.6,24-18.6c3.3-3,8.9-11.2,10.6-14.8    c1.7-3.6,1.9-7.1-1.5-10.1C139.7,225.8,132.9,225.3,132.9,225.3z"></path>		<path class="st2" d="M72.3,266.7c0,0,2.3,8.3,12.3,13.8c10,5.4,27.1,2.4,34.9-4.3s18.9-18.1,23.7-28.2c4.8-10.1,3.3-15.6,1.9-17.2    "></path>		<path class="st2" d="M122.9,228.8c-4.1,0.7-8.5,1.5-12.5,2.3c-8,1.6-15.7,3.7-21.4,6.5c-5.7,2.9-10.9,6.7-11.2,7.3"></path>		<path class="st2" d="M136.9,246.7c2.2-2.2,5.8-6.5,6.2-10.8c0.5-5.1-2.9-8.1-9.2-8.2c-2.2,0-4.9,0.2-7.7,0.6"></path>		<path class="st2" d="M132.3,251.5c1-1.1,1.9-2,2.5-2.7"></path>		<path class="st2" d="M111.7,267.8c1.8-1,3.5-1.9,5.1-2.8c4.6-2.5,9.9-7.8,13.9-11.9"></path>		<path class="st2" d="M77.1,247.3c0,0-5.8,5.2-4.7,13c1.2,7.8,9.5,12.7,17.5,14.1c5.8,1,13.2-2.1,19.7-5.4"></path>	</g>	<g>		<path class="st2" d="M59.8,108.6c0,0-8,1.4-9.9,1.4c-1.9-0.1-3.8-0.6-4,1c-0.2,1.6-0.2,1.6-0.2,1.6s-1.5-0.6-2.2,1.3    c-0.7,1.9,2.7,7,7.4,10.9c4.7,3.9,12.3,11,17,13.9c4.7,2.8,17.6,9.4,17.6,9.4s2.9,3.7,4,5.3c1.1,1.7,4.4,6.6,4.3,5.5    c0-1.1,0.2-5.5,0.2-5.5l-2.3-3.6c0,0,14.3,3.3,16.9,3.8c2.6,0.5,6,1,6,1l5.6,5.1c0,0,5.2-2.5,8-3.6c2.8-1.1,10.6-1.5,10.6-1.5    l0.4-1.1l7.4,2.6c0,0,4.5,6.2,7.7,10.2c3.2,4,7.7,7.4,7.7,7.4s-2.1-10.4-2.8-13c-0.7-2.6-1.5-5.7-1.5-5.7s10-5.6,11.4-8.1    c1.4-2.5,4.4-6.5,4.4-6.5s-13.4,3.9-16.2,4.3c-2.7,0.5-5.4,2.9-8.3,2.2c-2.9-0.7-12-5.6-14.6-8.3c-2.6-2.7-18-14.1-20.1-15.7    c-2.1-1.7-3.3-2.5-3.3-2.5l3.6-0.6c0,0-3.2-4-5.1-7.5c-1.9-3.5-2.9-7.1-2.9-7.1l-0.1-1.3L94,111.5c0,0-13.1-3.9-21.1-4.1    C64.9,107.1,59.8,108.6,59.8,108.6z"></path>		<path class="st4" d="M53.6,113.1c0.2-0.6-0.1-1.3-0.7-1.5s-1.3,0.1-1.5,0.7c-0.2,0.6,0.1,1.3,0.7,1.5    C52.7,114.1,53.4,113.8,53.6,113.1z"></path>		<path class="st2" d="M68.9,113.1c0.3,0.4,0.4,1,0.3,1.9c-0.4,3.3-1.8,9.8-3.9,11.5c-2.2,1.7-5.9,1.6-5.9,1.6"></path>		<path class="st2" d="M66.3,111.9c0,0,1-0.1,1.9,0.4"></path>		<path class="st2" d="M64.4,129.4c0,0,4.8,0.9,10,2.5c5.2,1.5,3.5,2.2,1.5,2.3c-2,0.1-5.1,1.7-6.9,0.8c-1.8-0.9-4.3-4-4.3-4"></path>		<path class="st2" d="M59.1,116.9c0-1-0.1-1.7-0.1-1.7"></path>		<path class="st2" d="M45.7,112.7c0,0-0.8,2.1,1.5,5.1c2.3,3,4.5,3.8,4.5,3.8s2.9,2.4,5.5,0.2c0.7-0.6,1.2-1.4,1.5-2.3"></path>		<path class="st2" d="M51.7,122.9c0,0,3.9,3.8,6.6,3.4c2.7-0.5,4.2-6.1,3.8-8.4"></path>		<line class="st2" x1="100.1" y1="110.6" x2="97.1" y2="112.5"></line>		<line class="st2" x1="107" y1="106.3" x2="101.3" y2="109.9"></line>		<path class="st2" d="M116.6,154.5c0,0,18-1.3,19.7-1.2"></path>		<line class="st2" x1="102" y1="112.2" x2="99.5" y2="113.8"></line>		<line class="st2" x1="107.7" y1="108.5" x2="103.6" y2="111.2"></line>		<line class="st2" x1="103.3" y1="114.5" x2="101.9" y2="115.4"></line>		<line class="st2" x1="108.4" y1="111.1" x2="104.9" y2="113.4"></line>		<line class="st2" x1="109.8" y1="113.5" x2="104.8" y2="116.9"></line>		<line class="st2" x1="108.4" y1="117.8" x2="107.4" y2="118.5"></line>		<line class="st2" x1="111.2" y1="115.8" x2="109.1" y2="117.3"></line>		<line class="st2" x1="112.4" y1="117.6" x2="109.5" y2="119.3"></line>		<line class="st2" x1="118.4" y1="156.3" x2="117.5" y2="155.4"></line>		<line class="st2" x1="121.2" y1="159" x2="119.3" y2="157.2"></line>		<line class="st2" x1="123.2" y1="158.2" x2="120.4" y2="155.1"></line>		<line class="st2" x1="125" y1="157.7" x2="123.2" y2="155.1"></line>		<line class="st2" x1="127.1" y1="156.7" x2="125.3" y2="154.5"></line>		<line class="st2" x1="129" y1="155.9" x2="127.9" y2="154.2"></line>		<line class="st2" x1="132" y1="155.4" x2="131.2" y2="154.2"></line>		<line class="st2" x1="172.3" y1="141" x2="156.3" y2="147.5"></line>		<line class="st2" x1="162.6" y1="146.7" x2="157.3" y2="148.8"></line>		<line class="st2" x1="171" y1="143.5" x2="164.1" y2="146.2"></line>		<line class="st2" x1="168.7" y1="147.5" x2="158.2" y2="150.7"></line>		<line class="st2" x1="158.4" y1="152.4" x2="157.1" y2="152.5"></line>		<line class="st2" x1="163.4" y1="151.6" x2="160.3" y2="152.1"></line>		<line class="st2" x1="158.1" y1="157.8" x2="155.4" y2="155.2"></line>		<line class="st2" x1="156.6" y1="159.2" x2="154.3" y2="156.7"></line>		<line class="st2" x1="159.6" y1="162.6" x2="157.3" y2="160"></line>		<line class="st2" x1="156.3" y1="162.6" x2="152.8" y2="158.1"></line>		<line class="st2" x1="161" y1="168.7" x2="157.4" y2="164.1"></line>		<line class="st2" x1="152" y1="160.4" x2="150.6" y2="158.4"></line>		<line class="st2" x1="161.9" y1="173.7" x2="153.2" y2="162"></line>		<line class="st2" x1="68.2" y1="133.2" x2="67" y2="132.4"></line>		<line class="st2" x1="71.1" y1="135.2" x2="69.2" y2="133.9"></line>		<line class="st2" x1="72.7" y1="134.6" x2="69.1" y2="132"></line>		<line class="st2" x1="75" y1="133.9" x2="72" y2="132.2"></line>		<line class="st2" x1="93.6" y1="157.1" x2="87.9" y2="149.6"></line>		<line class="st2" x1="93.5" y1="154.8" x2="89.6" y2="149.7"></line>	</g>	<g>		<g>			<path class="st5" d="M372.5,327.8H154.3c-10.7,0-19.4-8.7-19.4-19.4V111.4c0-10.7,8.7-19.4,19.4-19.4h218.2     c10.7,0,19.4,8.7,19.4,19.4v196.9C391.9,319.1,383.2,327.8,372.5,327.8z"></path>			<path class="st2" d="M323.1,156.4c-7.7,3-25.3,2.2-25.3,2.2H229c0,0-17.6,0.7-25.3-2.2c-7.7-3-16.1-19.2,10.7-36.2     c22.9-14.5,40.8-15,45.5-14.8l0-0.2c0,0,25.6-2,52.4,15C339.1,137.2,330.7,153.4,323.1,156.4z"></path>			<path class="st2" d="M312.8,158.3c-7.4,0.6-15,0.3-15,0.3H229c0,0-6.7,0.3-13.6-0.2c9.1-17.3,27.2-29.1,48.1-29.4     c0.2,0,0.4,0,0.7,0C285.2,129,303.5,140.9,312.8,158.3z"></path>			<path class="st6" d="M263.5,129v29.5H229c0,0-6.7,0.3-13.6-0.2C224.6,141.1,242.6,129.3,263.5,129z"></path>			<g>				<line class="st2" x1="263.4" y1="110" x2="263.4" y2="123.1"></line>				<line class="st2" x1="226.4" y1="120.6" x2="233" y2="132"></line>				<g>					<line class="st2" x1="199.6" y1="146.8" x2="211.2" y2="153.4"></line>					<line class="st2" x1="255.4" y1="109.6" x2="256.2" y2="116.2"></line>					<line class="st2" x1="247.7" y1="111" x2="249.2" y2="117.5"></line>					<line class="st2" x1="240.1" y1="113.2" x2="242.3" y2="119.4"></line>					<line class="st2" x1="232.9" y1="116.1" x2="235.7" y2="122.1"></line>					<line class="st2" x1="219.5" y1="124.2" x2="223.6" y2="129.4"></line>					<line class="st2" x1="213.6" y1="129.2" x2="218.1" y2="134"></line>					<line class="st2" x1="208.2" y1="134.7" x2="213.2" y2="139.1"></line>					<line class="st2" x1="203.4" y1="140.9" x2="208.9" y2="144.6"></line>				</g>				<line class="st2" x1="300.2" y1="120.6" x2="293.5" y2="132"></line>				<g>					<line class="st2" x1="326.9" y1="146.8" x2="315.3" y2="153.4"></line>					<line class="st2" x1="271.2" y1="109.6" x2="270.4" y2="116.2"></line>					<line class="st2" x1="278.9" y1="111" x2="277.4" y2="117.5"></line>					<line class="st2" x1="286.4" y1="113.2" x2="284.2" y2="119.4"></line>					<line class="st2" x1="293.6" y1="116.1" x2="290.8" y2="122.1"></line>					<line class="st2" x1="307" y1="124.2" x2="303" y2="129.4"></line>					<line class="st2" x1="313" y1="129.2" x2="308.4" y2="134"></line>					<line class="st2" x1="318.4" y1="134.7" x2="313.3" y2="139.1"></line>					<line class="st2" x1="323.1" y1="140.9" x2="317.7" y2="144.6"></line>				</g>			</g>			<path class="st5" d="M369.4,96.9h-1.8L350.2,142c-5.3,13.8-18.6,23-33.4,23H212.9c-14.5,0-27.6-8.7-33.1-22.1l-18.9-45.9h-3.5     c-9.5,0-17.3,7.7-17.3,17.3v191.5c0,9.5,7.7,17.3,17.3,17.3h211.9c9.5,0,17.3-7.7,17.3-17.3V114.1     C386.6,104.6,378.9,96.9,369.4,96.9z"></path>			<polygon class="st7" points="266,158.6 257.4,158.6 243,127.1    "></polygon>		</g>	</g>	<g>		<g>			<path class="st5" d="M262.4,213.6c0,0-2.1,11.2-5.3,16c-3.2,4.8-6.2,7.1-10.5,7.8c-4.4,0.7-14.7,0.2-17.9,3.9     S214.6,279,214.6,279s-2.8,7.3-0.7,12.1c2.1,4.8,6.4,7.8,10.1,4.4c3.7-3.4,12.6-32.1,12.6-32.1l8,23.2c0,0-10.1,15.4-10.8,21.5     c0,0-6,23.2-4.1,37.8s14.2,25.4,13.8,38.5s-7.6,17.2-8.3,27.5c-0.7,10.3,2.1,37.1,2.1,39.9c0,2.8,0.2,5.3,3.2,6.2     s5.5-0.2,5.5-0.2s2.8-16.5,8-29.1c5.3-12.6,8-24.3,10.3-36.7c2.3-12.4,3.7-36.7,3.7-40.3s-0.2-9.6-0.2-9.6l3.2-1.6     c0,0,0.5,33,1.8,44.2c1.4,11.2,3.7,22.5,3.7,25.2s-0.5,10.5,1.1,18.1c1.6,7.6,2.1,24.8,2.1,24.8s-0.7,3.2,0.5,4.1     c1.1,0.9,6.9,0.5,8,0.2c1.1-0.2,2.1-4.4,2.1-5.3c0-0.9,1.8-15.1,4.6-25.9c2.8-10.8,3.9-15.8,3.9-26.1c0-10.3-3.9-12.8-1.4-23.4     c2.5-10.5,10.8-21.3,10.8-37.1s-6.4-29.8-9.6-34.2c0,0,2.5-7.6-8.5-22.9l3-24.5c0,0,25.9,10.8,30.7,11.9c4.8,1.1,9.2-3.9,8.7-8     c-0.5-4.1-11.2-9.9-18.3-13.8c-7.1-3.9-12.3-10.5-21-13c-8.7-2.5-14.3,0.2-15.2,0.2c-0.9,0-3-13.5-3-13.5L262.4,213.6z"></path>			<path class="st7" d="M274.8,221.4l-12.4-7.8c0,0-0.1,0.7-0.4,1.9c1.9,2.5,9.3,12,14.3,14.9C275.6,226.4,274.8,221.4,274.8,221.4z     "></path>			<path class="st2" d="M269.9,294.8c0,0.5-0.4,0.9-0.8,0.9s-0.8-0.4-0.8-0.9c0-0.5,0.4-0.9,0.8-0.9S269.9,294.3,269.9,294.8z"></path>			<path class="st7" d="M308.1,339.2c0-15.5-6.2-29.3-9.5-33.9c-4.3,3.1-14.7,8.8-30.9,8.5c-17.6-0.4-29.6-5-33.7-6.8     c-0.1,0.4-0.2,0.8-0.2,1.1c0,0-6,23.2-4.1,37.8s14.2,25.4,13.8,38.5s-7.6,17.2-8.3,27.5c-0.2,3.4-0.1,8.6,0.2,14.1     c6.5,3.3,14.8,2.6,18.9,1.8c5-12.3,7.7-23.7,10-35.9c2.3-12.4,3.7-36.7,3.7-40.3s-0.2-9.6-0.2-9.6l3.2-1.6c0,0,0.5,33,1.8,44.2     c1.4,11.2,3.7,22.5,3.7,25.2s-0.5,10.5,1.1,18.1c0,0.2,0.1,0.5,0.1,0.7c1.6,0,3.6,0,5.8,0c4.4-0.1,8-0.7,10.9-1.4     c0.1-0.5,0.2-0.9,0.3-1.4c2.8-10.8,3.9-15.8,3.9-26.1c0-10.3-3.9-12.8-1.4-23.4C299.8,365.8,308.1,355,308.1,339.2z"></path>		</g>		<path class="st7" d="M289,179.7c0,0-17.9-9.9-26.4-9.2c-8.5,0.7-21.3,18.3-22.9,26.8c-1.6,8.5,6.6,13.1,7.1,13.8    c0.5,0.7-6.9,0.2-6.2,5.7c0.7,5.5,9.4,6.4,14.4,5.5c5-0.9,8.5-7.3,8.5-8.3c0-0.9-2.3-7.1-2.3-7.1s4.8,0.5,5.5-3.7    c0.7-4.1,4.6-13.3,9.9-13.5c5.3-0.2,9.4,0.5,9.9,1.6c0.5,1.1,0.9,5.5,0.9,5.5s6,1.4,10.8-2.8c4.8-4.1,6.6-15.4,0.2-17.7    C292,174.2,289,179.7,289,179.7z"></path>		<g>			<path class="st5" d="M259.1,203.1l-9.2,5.2c0,0,3.5,4.2,5,4.7c1.5,0.5,4-0.2,4-0.2s4.2,5,7.5,7.2c3.2,2.2,11,6.5,15.2,5     s10.5-12.7,10-16.4c-0.5-3.7-2.7-9.7-2.5-12.7c0.2-3,0.7-7.7,0.7-7.7s-10.2-5-18.4-0.2C263.1,192.7,263.6,201.4,259.1,203.1z"></path>			<path class="st2" d="M281.5,198.7l0.2,3c0,0,6.5,0.7,4,3c-2.5,2.2-6,2.7-6,2.7"></path>			<path class="st7" d="M285.3,211.6c0,0-4.5,1.5-7,1.5c-2.5,0-4.7-0.5-4.7-0.5s2.2,2.2,4.2,4c2,1.7,4.5,2,4.5,2l-0.2-4.2     L285.3,211.6z"></path>			<path class="st2" d="M269.6,196.7c0,0,2.5-2.5,5.5-2.2"></path>			<path class="st2" d="M282.5,193.7c0,0,2.5-1,5,1"></path>			<ellipse class="st4" cx="274.1" cy="200.8" rx="1.1" ry="1.9"></ellipse>			<ellipse class="st4" cx="285.3" cy="199.7" rx="1.1" ry="1.9"></ellipse>		</g>		<g>			<path class="st6" d="M297.7,236.6c-8.7-5.2-18.5-2-19.2-1.8c1.2,3.2,3.6,9.4,4.3,12.1c0.9,3.7,0.9,5.3,0.9,5.3s-1.1,2.8-11.9,5.5     c-10.8,2.8-20.6,0-22.9-1.6c-2.3-1.6-3.4-2.8-3.4-2.8l4.9-17c-1,0.5-21,1.2-21.7,5.1c-0.7,5.3,0.7,19.2,7.8,22     c0.5,2.8,2.4,7.6,3.7,10.7l4.3,12.4c0,0-11.1,17.2-10.4,19.9c2.3,8.8,24.5,15.6,33.7,15.6c10.1,0,26.8-7.4,30.5-17     c2.3-7.9-7.6-21.8-8.5-22.9c0,0,2.3-18.5,3-24.5C300.4,255,297.7,236.6,297.7,236.6z"></path>			<line class="st2" x1="264.8" y1="279.7" x2="277.1" y2="273.4"></line>			<line class="st2" x1="259.9" y1="282.1" x2="262.1" y2="281"></line>			<line class="st2" x1="273.4" y1="277.6" x2="263.3" y2="283.1"></line>		</g>		<g>			<path class="st5" d="M244.5,456.4c0,0-1.1-3.2-3.4-3.4c-2.3-0.2-5.7-0.9-6.9,1.1c-1.1,2.1-2.1,6.2-2.1,6.2s-6.4,4.6-9.4,8     c-3,3.4-2.1,5.7,0.5,7.6c2.5,1.8,8.7,2.1,11.5,1.1c2.8-0.9,5.5-4.8,5.5-4.8s6.2,0,7.1-1.8c0.9-1.8,0.2-8.9,0.2-8.9     s1.1-2.3,0.9-3.9c-0.2-1.6-1.4-2.5-1.4-2.5S245.7,456.4,244.5,456.4z"></path>			<path class="st5" d="M231.5,474.7c-3.7,0.8-7.9-0.8-10.6-2.2c0.1,1.3,1,2.4,2.3,3.4c2.5,1.8,8.7,2.1,11.5,1.1     c2.8-0.9,5.5-4.8,5.5-4.8s6.2,0,7.1-1.8c0.4-0.8,0.5-2.6,0.5-4.3c-1.5,1.2-4.7,3.4-6.9,3.9C237.9,470.6,237.4,473.3,231.5,474.7z     "></path>		</g>		<g>			<path class="st5" d="M279.6,452.7c0,0-3.2,2.8-3.2,5.3c0,2.5,0.2,5.7,0.2,5.7s-1.8,6.2-0.5,7.6c1.4,1.4,4.4,2.1,6.4,2.1     c2.1,0,5.7,0.5,5.7,0.5s5.5,3,10.3,3.9c4.8,0.9,9.9-0.2,10.3-3.2c0.5-3-3-6-5-7.1c-2.1-1.1-5.3-3.4-6.2-5c-0.9-1.6-4.8-5-4.8-5     s0.9-4.8-1.8-5c-2.8-0.2-4.8,3.7-4.8,3.7s-2.8-0.2-4.4-0.2c-1.6,0-2.5,0-2.5,0L279.6,452.7z"></path>			<path class="st5" d="M309,474.5c0.1-0.6,0-1.1-0.1-1.7c-1.2,1-2.7,2.1-4.5,2.8c-3.7,1.6-8.5-0.9-11.7-2.1c-3.2-1.1-4.6-2.8-9.6-3     c-3.6-0.2-6.1-1.8-7.3-2.8c-0.2,1.5-0.2,2.9,0.4,3.5c1.4,1.4,4.4,2.1,6.4,2.1c2.1,0,5.7,0.5,5.7,0.5s5.5,3,10.3,3.9     C303.5,478.6,308.5,477.5,309,474.5z"></path>		</g>					<ellipse transform="matrix(0.7071 -0.7071 0.7071 0.7071 -117.3316 209.0288)" class="st7" cx="193.7" cy="246.1" rx="8.9" ry="8.9"></ellipse>		<g>			<path class="st5" d="M201.7,244.5l2.3-3.4c0,0,2.3,0.9,4.1,1.4c1.8,0.5,3.7,0.2,3,1.4c-0.7,1.1-3.7,2.1-4.8,2.1     C205.1,245.9,201.7,244.5,201.7,244.5z"></path>			<path class="st5" d="M227.4,289.2c0,0,0.2,1.6-0.5,4.6c-0.7,3-4.1,7.1-5.7,7.6c-1.6,0.5-6-0.5-8.5-5.5c-2.5-5-8.3-22-8.3-22     s-7.3-19-7.3-20.4c0-1.4,3.4-10.1,3.4-10.1s-0.2-1.1,1.1-0.9c1.4,0.2,3.7,1.8,3.7,1.8l6.2,2.5c0,0,1.8,1.4,1.6,3.2     c-0.2,1.8-1.1,4.1-1.1,4.1s-0.2,3.2-0.7,5c-0.5,1.8-2.8,6.9-2.8,6.9s3.7,7.8,6.9,12.2c3.2,4.4,9.9,8.7,9.9,8.7"></path>			<path class="st2" d="M204.4,244.1c0,0-3.7,5-3.7,8.7"></path>			<path class="st2" d="M208.1,246.1c0,0-3.2,4.4-3.4,7.1"></path>			<path class="st2" d="M212,247.8c0,0-2.8,3.4-4.1,6.2"></path>		</g>		<ellipse transform="matrix(0.987 -0.1606 0.1606 0.987 -37.5284 38.6062)" class="st7" cx="220" cy="251.4" rx="8.9" ry="8.9"></ellipse>		<g>			<g>				<ellipse class="st6" cx="302.8" cy="213.7" rx="8.6" ry="8.3"></ellipse>				<polygon class="st8" points="303.9,205.7 305,200.8 306.7,200.8 305.5,205.7     "></polygon>				<path class="st6" d="M304.2,204.5c0,0-0.6-1.5-2.6-2.6c-2-1.1-4.6-1.5-4.6-1.5s2.1,2.8,3.5,3.5      C301.9,204.7,304.2,204.5,304.2,204.5z"></path>			</g>			<g>				<path class="st5" d="M305.5,217.5c0,0-7.1,9.9-6.4,12.2c0.7,2.3,16.5,31.4,18.6,35.1c2.1,3.7,5.7,6,9.4,6c3.7,0,8-5,7.6-9.2      c-0.5-4.1-11.5-15.1-15.1-19c-3.7-3.9-13.3-13.5-13.3-13.5s9.2-10.3,10.1-12.4c0.9-2.1,1.6-3.4,0.9-5c-0.7-1.6-5.3-7.6-5.3-7.6      s-1.4-0.7-2.5,0.5c-1.1,1.1-1.6,2.5-1.6,2.5s-2.1,1.6-2.1,3.2C305.8,211.8,305.5,217.5,305.5,217.5z"></path>				<path class="st2" d="M307.8,206.9c0,0,1,9.4,1,10.7c0,1.3-0.8,2.6-0.8,2.6"></path>				<path class="st2" d="M309.5,204c0,0,2.5,10.5,2.6,12.4c0.1,1.9,0.1,2.6,0.1,2.6"></path>				<path class="st2" d="M312.3,204.2c0,0,3.1,9.5,3.2,10.6c0.2,1.1-1.4,2.7-1.6,3.1"></path>			</g>		</g>	</g></g></svg>