<svg xmlns="http://www.w3.org/2000/svg" xmlns:xlink="http://www.w3.org/1999/xlink" id="Capa_1" x="0px" y="0px" viewBox="0 0 512 512" style="enable-background:new 0 0 512 512;" xml:space="preserve"><style type="text/css">	.st0{fill:#1B507C;}	.st1{opacity:0.7;fill:#FFFFFF;}	.st2{fill:#1A2E35;}	.st3{opacity:0.5;fill:#FFFFFF;}	.st4{fill:#1A2E35;stroke:#FFFFFF;stroke-linecap:round;stroke-linejoin:round;stroke-miterlimit:10;}	.st5{fill:none;stroke:#FFFFFF;stroke-linecap:round;stroke-linejoin:round;stroke-miterlimit:10;}	.st6{fill:#FFFFFF;}	.st7{fill:#1A2E35;stroke:#1A2E35;stroke-linecap:round;stroke-linejoin:round;stroke-miterlimit:10;}	.st8{fill:#FFFFFF;stroke:#1A2E35;stroke-linecap:round;stroke-linejoin:round;stroke-miterlimit:10;}	.st9{fill:#F9B81E;stroke:#1A2E35;stroke-linecap:round;stroke-linejoin:round;stroke-miterlimit:10;}	.st10{fill:none;stroke:#1A2E35;stroke-linecap:round;stroke-linejoin:round;stroke-miterlimit:10;}	.st11{fill:none;stroke:#8F999C;stroke-linecap:round;stroke-linejoin:round;stroke-miterlimit:10;}</style><g>	<g>		<path class="st0" d="M345.4,55.1c0,0-77.6-35.2-155.7,4.8c-78,40-119.1,128.5-154.2,199.3C0.4,329.9,17.7,406.1,75.6,444.8    c57.9,38.7,99-8.3,181.4-4.2c82.4,4.1,104.3,18.1,173.8-24.9c69.5-43,84.7-156.3,32.9-245.2C411.9,81.7,345.4,55.1,345.4,55.1z"></path>		<path class="st1" d="M345.4,55.1c0,0-77.6-35.2-155.7,4.8c-78,40-119.1,128.5-154.2,199.3C0.4,329.9,17.7,406.1,75.6,444.8    c57.9,38.7,99-8.3,181.4-4.2c82.4,4.1,104.3,18.1,173.8-24.9c69.5-43,84.7-156.3,32.9-245.2C411.9,81.7,345.4,55.1,345.4,55.1z"></path>	</g>	<g>		<path class="st2" d="M299.7,335.2c0,0,4.4,21.8,27.2,25.1c22.8,3.3,54.9,8.7,53.2,27.1c-1.7,18.4-18.5,23.4-21.9,38.3    c-3.4,14.9,11.1,29.4,28.5,32.2c17.4,2.8,33-3.6,47.7-26.5c14.7-22.9,5.2-58.4-12.1-80.7c-17.3-22.2-44.9-19.9-72.8-15.3    C321.5,340,312.1,344.5,299.7,335.2z"></path>		<path class="st3" d="M299.7,335.2c0,0,4.4,21.8,27.2,25.1c22.8,3.3,54.9,8.7,53.2,27.1c-1.7,18.4-18.5,23.4-21.9,38.3    c-3.4,14.9,11.1,29.4,28.5,32.2c17.4,2.8,33-3.6,47.7-26.5c14.7-22.9,5.2-58.4-12.1-80.7c-17.3-22.2-44.9-19.9-72.8-15.3    C321.5,340,312.1,344.5,299.7,335.2z"></path>		<polygon class="st4" points="366.3,445.7 368.3,443.3 371.4,445.4 374,443.6 376.4,447.5 382.8,445.9 383.7,449 389,446.7     390.3,452.1 397.1,450.2 396.7,453.3 403.5,452.4 399.8,456.5 396,455.3 393.7,457.1 390.8,454 388.2,455.6 385.9,453.1     382.7,454.4 379.7,451.8 377.9,453.9 375.1,451.1 373,451.8 370.8,448.6 369,449 368.3,447.1   "></polygon>		<path class="st4" d="M398,441.1c0.2,0.9,2.4,1.1,4.8,0.5c2.4-0.6,4.3-1.8,4-2.6c-0.2-0.9-2.4-1.1-4.8-0.5    C399.6,439,397.8,440.2,398,441.1z"></path>		<path class="st4" d="M368.7,430.3c-0.7,0.5-0.1,2.6,1.5,4.6c1.5,2,3.3,3.2,4,2.7c0.7-0.5,0.1-2.6-1.5-4.6    C371.2,431,369.4,429.8,368.7,430.3z"></path>	</g>	<g>		<path class="st2" d="M441,152.2c1.2-33.2-10.4-57.8-19.8-71.7c-9.5-13.9-23.4-21.6-31.4-30.8c-8-9.2-13.6-13.6-20.1-16.6    c-6.5-3-14.2-3.9-14.2-3.9l2.7,5c0,0-5-3.3-8-3.3c-3,0-8.3,0-8.3,0l5.3,6.8L334.4,37c0,0,5.3,7.1,8,9.2c2.7,2.1,5.3,3.9,5.3,3.9    s-6.2,0.6-7.4,0.6s-3.9,0.3-3.9,0.3s9.2,4.1,15.4,8.9c6.2,4.7,7.7,7.1,7.7,7.1l-12.4,0.3c0,0,6.5,5.6,12.7,9.2    c6.2,3.6,12.4,3.9,16.6,7.1c4.1,3.3,24.3,22.8,31.1,42.4s2.7,30.5,2.7,30.5s-5,11.6-18.4,11.6c-13.3,0-17.5-19.5-21.3-29.3    l-2.4-10.1c0,0,4.7-1.2,4.7-6.8c0-5.6-2.7-13.6-5.9-15.1c-3.3-1.5-5.9-1.5-5.9-1.5s-2.6-6.3-7.8-11.8c0.7-1.2,1.7-3.5,1.5-6.6    c-0.2-3.4-3.7-6.8-5.4-8.2c-0.2-0.2-0.5,0-0.4,0.3c0.3,1,0.5,2.8-0.7,4.6c-1.3,1.8-2.8,2.8-3.9,3.4c-8.5-3.9-19.6-3.9-26.3,6.1    c-1.4,2.1-2.4,4.2-3.3,6.4c-0.7,0.8-1.8,2.1-3,2.5c-1.8,0.6-6.8-5.6-6.8-5.6s-2.1,3.3,0.3,9.5c1.5,4,4.7,4.3,7.2,3.8    c-0.6,6.1,0.1,11.3,0.2,13.4c0.3,3.9,0.3,5,0.3,5s-3,3-1.5,8.3c1.5,5.3,5.9,10.7,7.4,11.6c1.5,0.9,3,1.2,3,1.2s6.8,5.9,10.7,17.8    c3.9,11.8,2.7,20.7-4.4,23.1c-7.1,2.4-18.4-13.6-26.1-35.8c-7.7-22.2-1.8-45.6-0.9-55.7c0.9-10.1,3.6-21,0.9-16.6    c-2.7,4.4-7.1,11.6-7.1,11.6s-0.6-26.1-0.3-29.3c0.3-3.3,0.3-5.6,0.3-5.6l-9.5,12.4l4.1-16.3c0,0-5.9,4.7-7.4,6.8    c-1.5,2.1-4.1,4.7-4.1,4.7l0.3-10.1c0,0-7.1,9.8-8,12.7c-0.1,0.2-0.1,0.4-0.2,0.6l-0.7-8.3c0,0-4.4,2.1-4.4,18.1    c0,7.8,0.4,13.9,0.9,18.1c-0.7,10.3-1.2,23.8-0.3,37.3c1.8,26.4,17.5,49.8,33.8,71.1c16.3,21.3,36.4,32.6,48.6,43.8    c12.1,11.3,16.3,18.9,6.5,21.3c-9.8,2.4-5-10-18.9-17.1c-13.9-7.1-27.2,14.8-27.2,14.8s14.5-12.4,20.7-5.9    c6.2,6.5-2.4,9.2-1.5,23.1c0.9,13.9,12.4,20.4,40,20.1c27.5-0.3,39.4-13.6,51.8-40s-1.8-48.3,3.6-62.5    C428.3,188.9,439.9,185.4,441,152.2z"></path>		<path class="st3" d="M441,152.2c1.2-33.2-10.4-57.8-19.8-71.7c-9.5-13.9-23.4-21.6-31.4-30.8c-8-9.2-13.6-13.6-20.1-16.6    c-6.5-3-14.2-3.9-14.2-3.9l2.7,5c0,0-5-3.3-8-3.3c-3,0-8.3,0-8.3,0l5.3,6.8L334.4,37c0,0,5.3,7.1,8,9.2c2.7,2.1,5.3,3.9,5.3,3.9    s-6.2,0.6-7.4,0.6s-3.9,0.3-3.9,0.3s9.2,4.1,15.4,8.9c6.2,4.7,7.7,7.1,7.7,7.1l-12.4,0.3c0,0,6.5,5.6,12.7,9.2    c6.2,3.6,12.4,3.9,16.6,7.1c4.1,3.3,24.3,22.8,31.1,42.4s2.7,30.5,2.7,30.5s-5,11.6-18.4,11.6c-13.3,0-17.5-19.5-21.3-29.3    l-2.4-10.1c0,0,4.7-1.2,4.7-6.8c0-5.6-2.7-13.6-5.9-15.1c-3.3-1.5-5.9-1.5-5.9-1.5s-2.6-6.3-7.8-11.8c0.7-1.2,1.7-3.5,1.5-6.6    c-0.2-3.4-3.7-6.8-5.4-8.2c-0.2-0.2-0.5,0-0.4,0.3c0.3,1,0.5,2.8-0.7,4.6c-1.3,1.8-2.8,2.8-3.9,3.4c-8.5-3.9-19.6-3.9-26.3,6.1    c-1.4,2.1-2.4,4.2-3.3,6.4c-0.7,0.8-1.8,2.1-3,2.5c-1.8,0.6-6.8-5.6-6.8-5.6s-2.1,3.3,0.3,9.5c1.5,4,4.7,4.3,7.2,3.8    c-0.6,6.1,0.1,11.3,0.2,13.4c0.3,3.9,0.3,5,0.3,5s-3,3-1.5,8.3c1.5,5.3,5.9,10.7,7.4,11.6c1.5,0.9,3,1.2,3,1.2s6.8,5.9,10.7,17.8    c3.9,11.8,2.7,20.7-4.4,23.1c-7.1,2.4-18.4-13.6-26.1-35.8c-7.7-22.2-1.8-45.6-0.9-55.7c0.9-10.1,3.6-21,0.9-16.6    c-2.7,4.4-7.1,11.6-7.1,11.6s-0.6-26.1-0.3-29.3c0.3-3.3,0.3-5.6,0.3-5.6l-9.5,12.4l4.1-16.3c0,0-5.9,4.7-7.4,6.8    c-1.5,2.1-4.1,4.7-4.1,4.7l0.3-10.1c0,0-7.1,9.8-8,12.7c-0.1,0.2-0.1,0.4-0.2,0.6l-0.7-8.3c0,0-4.4,2.1-4.4,18.1    c0,7.8,0.4,13.9,0.9,18.1c-0.7,10.3-1.2,23.8-0.3,37.3c1.8,26.4,17.5,49.8,33.8,71.1c16.3,21.3,36.4,32.6,48.6,43.8    c12.1,11.3,16.3,18.9,6.5,21.3c-9.8,2.4-5-10-18.9-17.1c-13.9-7.1-27.2,14.8-27.2,14.8s14.5-12.4,20.7-5.9    c6.2,6.5-2.4,9.2-1.5,23.1c0.9,13.9,12.4,20.4,40,20.1c27.5-0.3,39.4-13.6,51.8-40s-1.8-48.3,3.6-62.5    C428.3,188.9,439.9,185.4,441,152.2z"></path>		<path class="st4" d="M355.2,114.9l-32.9,13.9c0,0,4.7,9.2,19,8C355.5,135.6,355.2,114.9,355.2,114.9z"></path>		<path class="st5" d="M321.4,122c0,0,18.1-10.7,31.1-10.7"></path>		<path class="st5" d="M325,114c0,0,7.1-6.2,18.7-6.8"></path>		<path class="st5" d="M328.2,107.5c0,0,4.1-3,8.6-3"></path>		<path class="st6" d="M344.2,130.9c0,1.1-0.9,2.1-2.1,2.1c-1.1,0-2.1-0.9-2.1-2.1s0.9-2.1,2.1-2.1    C343.3,128.8,344.2,129.7,344.2,130.9z"></path>		<g>			<path class="st5" d="M367,160.2c0,0-4.1-12.7-11.8-15.4c-7.7-2.7-15.4,3.9-15.4,12.4c0,8.6,5.6,16.9,8.6,13.3     c3-3.6,3.3-12.4,6.8-11.8c3.6,0.6,6.2,9.8,10.4,8.3C369.7,165.5,367,160.2,367,160.2z"></path>			<path class="st4" d="M362.3,156.2c-0.3-0.7-0.7-1.3-1-1.8c-2.1-2.7-5.4-6.4-9.1-6.6c-4.7-0.3-8.9,4.4-8.9,9.2s1.5,10.7,3,7.7     c1.5-3,3.8-9.8,7.4-10.1c2.7-0.2,4.6,2.9,6.6,4.2C363.6,161.2,363.3,158.4,362.3,156.2z"></path>		</g>	</g>	<g>		<g>			<path class="st2" d="M181.9,167c0,0-6.4,15.1-12.3,15.4c-5.9,0.4-4-10.6,0.4-25.8c4.4-15.2,18.4-45.4,15.6-64.3     C182.8,73.3,159.3,62,146,78c-13.2,16-19,50.6-25.5,68.9c-6.5,18.3-13.8,22.4-18.9,17.2c-5.1-5.2,5.9-53.5,9.4-65.7     c3.5-12.2,5.8-17.3,8.4-20.7c2.6-3.4,9-17.2,9-17.2l-7,2.9c0,0,1.9-11,3.8-17.5c1.9-6.5,3.2-11,3.2-11s-8.9,9.4-9.6,10.4     c-0.7,1,0-20.2,0-20.2L108.5,38l-1.1-6.1l-6,12.3L96.8,40c0,0-7.6,19.2-12.8,37.5c-5.2,18.3-14.9,64.9-12.9,89.4     c2,24.5,10.8,35.6,18.5,34.6s13.2-2.8,13.2-2.8s-9.9,30.1-2.2,50.9c7.6,20.7,21.5,30.1,33.3,28.9c11.9-1.1,30-4.2,33.5-1.9     c3.5,2.2-4.3-13.6-14.1-18.5s-9.7-26.7-6-39.2c3.6-12.6,4.5-15.6,4.5-15.6s12.1,13.8,33.9,1.1c21.8-12.7,31.9-46.5,34.7-56.4     c2.8-9.9,16.8-38.4,19.5-45.1c2.7-6.6,6.7-20.3,6.7-20.3L240,88c0,0,2-17.1,1.8-19.3c-0.2-2.1-0.8-6-0.8-6l-5.7,7l-1.4-18.1     l-7.6,16.4l-2.9-12.8c0,0-9.9,18.6-11,22.4c-1.1,3.8-2.2,7.6-2.2,7.6l-5-9.7c0,0-2.7,9.5-3.2,18.4c-0.5,8.9-1.6,18.5-7.3,38.3     S181.9,167,181.9,167z"></path>			<path class="st3" d="M181.9,167c0,0-6.4,15.1-12.3,15.4c-5.9,0.4-4-10.6,0.4-25.8c4.4-15.2,18.4-45.4,15.6-64.3     C182.8,73.3,159.3,62,146,78c-13.2,16-19,50.6-25.5,68.9c-6.5,18.3-13.8,22.4-18.9,17.2c-5.1-5.2,5.9-53.5,9.4-65.7     c3.5-12.2,5.8-17.3,8.4-20.7c2.6-3.4,9-17.2,9-17.2l-7,2.9c0,0,1.9-11,3.8-17.5c1.9-6.5,3.2-11,3.2-11s-8.9,9.4-9.6,10.4     c-0.7,1,0-20.2,0-20.2L108.5,38l-1.1-6.1l-6,12.3L96.8,40c0,0-7.6,19.2-12.8,37.5c-5.2,18.3-14.9,64.9-12.9,89.4     c2,24.5,10.8,35.6,18.5,34.6s13.2-2.8,13.2-2.8s-9.9,30.1-2.2,50.9c7.6,20.7,21.5,30.1,33.3,28.9c11.9-1.1,30-4.2,33.5-1.9     c3.5,2.2-4.3-13.6-14.1-18.5s-9.7-26.7-6-39.2c3.6-12.6,4.5-15.6,4.5-15.6s12.1,13.8,33.9,1.1c21.8-12.7,31.9-46.5,34.7-56.4     c2.8-9.9,16.8-38.4,19.5-45.1c2.7-6.6,6.7-20.3,6.7-20.3L240,88c0,0,2-17.1,1.8-19.3c-0.2-2.1-0.8-6-0.8-6l-5.7,7l-1.4-18.1     l-7.6,16.4l-2.9-12.8c0,0-9.9,18.6-11,22.4c-1.1,3.8-2.2,7.6-2.2,7.6l-5-9.7c0,0-2.7,9.5-3.2,18.4c-0.5,8.9-1.6,18.5-7.3,38.3     S181.9,167,181.9,167z"></path>			<path class="st4" d="M165.3,91.1c-1.5,5.4-7.1,8.5-12.5,6.9s-8.5-7.1-6.9-12.5c1.5-5.4,7.1-8.5,12.5-6.9     C163.8,80.2,166.9,85.8,165.3,91.1z"></path>			<path class="st4" d="M184,96.5c-1,3.5-4.6,5.5-8.1,4.5c-3.5-1-5.5-4.6-4.5-8.1c1-3.5,4.6-5.5,8.1-4.5S185,93,184,96.5z"></path>			<path class="st5" d="M140.1,178.4L140.1,178.4c-7.9-2.3-12.4-10.5-10.2-18.4l12.6-43.8c2.3-7.9,10.5-12.4,18.4-10.2l0,0     c7.9,2.3,12.4,10.5,10.2,18.4l-12.6,43.8C156.2,176.1,147.9,180.7,140.1,178.4z"></path>			<path class="st4" d="M141.7,172.7L141.7,172.7c-4.9-1.4-7.8-6.6-6.4-11.5l12.3-43c1.4-4.9,6.6-7.8,11.5-6.4v0     c4.9,1.4,7.8,6.6,6.4,11.5l-12.3,43C151.8,171.3,146.6,174.1,141.7,172.7z"></path>		</g>		<polyline class="st5" points="157.5,72.9 169.1,80.6 178.7,83.3   "></polyline>		<polyline class="st5" points="165.6,71.8 172.1,76.2 176.1,77.4   "></polyline>	</g>	<g>		<path class="st2" d="M177.2,328.7c0,0-19,13.6-46.9-3.2c-27.8-16.8-25.9-36.4-51.5-50.3c-25.7-13.9-39.1,9.3-33.3,37.4    c5.8,28.1,32.5,53.1,65.9,52.9C144.7,365.5,175.5,334,177.2,328.7z"></path>		<path class="st3" d="M177.2,328.7c0,0-19,13.6-46.9-3.2c-27.8-16.8-25.9-36.4-51.5-50.3c-25.7-13.9-39.1,9.3-33.3,37.4    c5.8,28.1,32.5,53.1,65.9,52.9C144.7,365.5,175.5,334,177.2,328.7z"></path>		<path class="st4" d="M52.7,285.5c0,0-8.1,12.1-4.1,14.7C52.6,302.7,57.8,280,52.7,285.5z"></path>		<path class="st4" d="M78.8,284.1c0,0-18.1-8.7-16.2-2.2c1.9,6.4,18.7,11,20,8.3C84,287.3,78.8,284.1,78.8,284.1z"></path>		<path class="st4" d="M56.1,317.1c0,0,10,18.5,9.1,13.2c-0.9-5.2-8.6-18.6-10.1-18.9C53.7,311,56.1,317.1,56.1,317.1z"></path>		<path class="st4" d="M79.1,306c0,0,10,18.5,9.1,13.2c-0.9-5.2-8.6-18.6-10.1-18.9C76.8,299.9,79.1,306,79.1,306z"></path>		<path class="st4" d="M58.8,311.4c0,0,12.5,22.3,11.5,16s-10.7-22.5-12.6-22.9C55.9,304,58.8,311.4,58.8,311.4z"></path>		<path class="st4" d="M70.7,304.6c0,0,12.5,22.3,11.5,16c-1.1-6.3-10.7-22.5-12.6-22.9C67.7,297.3,70.7,304.6,70.7,304.6z"></path>		<path class="st4" d="M62.7,306.1c0,0,17,27.8,15.6,19.9c-1.4-7.9-14.5-28-17.1-28.5C58.7,296.9,62.7,306.1,62.7,306.1z"></path>	</g>	<g>		<path class="st7" d="M272.6,196c0,0-11-3.6-25.2,2.4c-14.2,5.9-21.6,18.7-21.6,18.7l7.4,0.9c0,0,0,5.6-7.1,14.5    c-7.1,8.9-24.9,19-36.4,32.3c-11.6,13.3-9.2,24.9-9.2,24.9l16.6-4.1c0,0-4.7,5.9-2.7,14.8c2.1,8.9,8,15.1,19.5,18.7    c11.6,3.6,36.4-2.7,36.4-2.7s7.4,10.7,22.2,15.4c14.8,4.7,21.9,2.1,26.7-2.1c4.7-4.1,6.8-8.3,6.8-8.3l6.5,3.9    c0,0,9.2-7.7,6.8-21.6c-2.4-13.9-17.2-30.8-19.5-44.7c-2.4-13.9,3-36.4,0.3-44.1c-2.7-7.7-10.4-10.4-10.4-10.4l3-2.4l-8.6-2.1    c0,0-1.5-5.3-4.7-8.3c-3.3-3-8.6-3.3-8.6-3.3l4.7,7.4L272.6,196z"></path>		<g>			<path class="st8" d="M282.6,284.6c0,0,6.5,2.1,8.3,13.6c1.8,11.6,4.4,33.8,4.4,36.1c0,2.4,12.7,55.7,12.7,55.7s5.9-0.9,8.9-1.8     c3-0.9,6.8,0.9,6.8,0.9s1.8-0.9,3.9,1.2c2.1,2.1,8,5.3,9.2,6.2c1.2,0.9-0.3,1.8-2.4,1.5c-2.1-0.3-4.4-0.9-5.3-1.5     c-0.9-0.6-5.3,0.3-5.3,0.3s7.1,1.8,8.9,2.4c1.8,0.6,3,1.2,1.5,2.1c-1.5,0.9-6.2,0.6-8,0.3s-9.5,0.9-14.2,0     c-4.7-0.9-11.3-7.4-11.3-7.4s-11.6-22.2-16.6-34.4c-3.8-9.1-8.6-21.6-9.2-23.1c-0.6-1.5-4.1-7.4-4.1-7.4s-0.9-19.3-2.7-24.3     c-1.8-5-1.2-22.2-0.3-23.1C268.7,281,280.6,283.1,282.6,284.6z"></path>			<path class="st9" d="M295.4,334.3c0-2.4-2.7-24.6-4.4-36.1c-1.8-11.6-8.3-13.6-8.3-13.6c-2.1-1.5-13.9-3.6-14.8-2.7     c-0.9,0.9-1.5,18.1,0.3,23.1c1.8,5,2.7,24.3,2.7,24.3s3.6,5.9,4.1,7.4c0.6,1.5,5.4,14,9.2,23.1c1.3,3.2,3.1,7,4.9,11     c3.2,0.1,7.8-1.1,13-6.3C298.8,350.4,295.4,335.6,295.4,334.3z"></path>			<path class="st7" d="M285.4,308.3c0,0,1.2,9.4,0.6,16.5c-0.6,7.2-5.6,15.9-5.6,15.9l-2.5,2.8l-2.9-9.2     C274.9,334.3,283.9,326.9,285.4,308.3z"></path>		</g>		<path class="st7" d="M186.4,328.7c0,0-12.4,6.2-18.4,13c-5.9,6.8-8.9,20.1-4.4,31.4c4.4,11.3,21,18.7,36.1,19    c15.1,0.3,35.2-17.8,39.4-24.9c4.1-7.1,0.9-20.7-4.1-27C229.9,334,186.4,328.7,186.4,328.7z"></path>		<path class="st9" d="M285.3,305c0,0,0.3,5.9-1.8,16.3c-2.1,10.4-8.6,13-8.6,13s-10.7,9.8-18.7,16.9c-8,7.1-17.2,12.7-17.2,12.7    s-15.4-7.4-24.3-13.9c-8.9-6.5-34.1-18.1-34.1-18.1s15.7-9.8,23.7-13.9c8-4.1,12.4-8.9,12.4-8.9s1.8-16.6,2.1-24    c0.3-7.4,11.8-12.1,16.9-11.6c5,0.6,11,5,11.3,2.7c0.3-2.4,0-12.4,0-12.4l19,3.6l0.3,11.8c0,0,1.5,1.8,7.1,2.4    c5.6,0.6,11.3,3.6,13.3,8"></path>		<path class="st8" d="M256.3,286.3c5.2,0,8.8-4.2,10.5-6.8c-0.3-0.2-0.4-0.3-0.4-0.3l-0.3-11.8l-19-3.6c0,0,0.3,10.1,0,12.4    c-0.1,0.6-0.6,0.8-1.3,0.6C247.2,280.1,250.8,286.3,256.3,286.3z"></path>		<g>			<path class="st8" d="M275,214.1l-35,19.9c0,0-3.5,15.1-1.7,19.9c1.7,4.7,9.1,18.6,12.5,19.9c3.5,1.3,9.1,1.3,13.8-1.7     c4.7-3,14.7-9.1,16.8-12.9c2.2-3.9-5.7-12.3-6.5-36.7C274.9,217.5,275,214.1,275,214.1z"></path>			<path class="st10" d="M255.1,232.7c0,0-0.3,1.5-2.1,4.1c-1.8,2.7-5.3,3.6-2.7,5.3c2.7,1.8,5.6,0.3,5.6,0.3"></path>			<path class="st7" d="M265.8,255.8c0-0.4,0-0.8-0.3-1.3c-1.2-2.9-6.4-5.4-9.3-5.9c-5.8-1-10.4,2.5-9.5,5.4c0.9,2.9,3.4,0.2,7,0.2     c2.5,0,4.4,1.7,6.6,2.7C262.1,257.7,265.6,257.9,265.8,255.8z"></path>			<g>				<path class="st8" d="M260.4,256.9c1.7,0.8,5.3,1,5.5-1.1c0-0.4,0-0.8-0.3-1.3c0,0,0-0.1-0.1-0.1c-6.3,0.1-15.2-0.8-18.8-1.3      c0,0.3,0,0.6,0.1,0.9c0.9,2.9,3.4,0.2,7,0.2C256.2,254.3,258.2,256,260.4,256.9z"></path>				<path class="st8" d="M261.8,250.8c-1.9-1.1-4-1.9-5.5-2.2c-3-0.5-5.7,0.2-7.5,1.4C251,250.9,255.5,252.1,261.8,250.8z"></path>			</g>			<path class="st2" d="M266,234.4c0,1.2-0.6,2.2-1.3,2.2c-0.7,0-1.3-1-1.3-2.2c0-1.2,0.6-2.2,1.3-2.2     C265.4,232.2,266,233.1,266,234.4z"></path>			<path class="st2" d="M251.2,232.7c0,1.2-0.6,2.2-1.3,2.2c-0.7,0-1.3-1-1.3-2.2c0-1.2,0.6-2.2,1.3-2.2     C250.6,230.5,251.2,231.5,251.2,232.7z"></path>			<path class="st10" d="M263.7,226.5c0,0,5-2.7,8,3"></path>		</g>		<path class="st9" d="M261,309.7c0,0-11.6-19.5-15.4-29c-3.9-9.5-9.5-13.3-18.1-9.8c-8.6,3.6-9.2,11.6-6.2,19.8    c3.2,9.1,18.7,42.6,21.9,50.3c3.3,7.7,7.7,12.4,7.7,12.4s7.4-5.3,10.7-17.2C264.9,324.6,261,309.7,261,309.7z"></path>		<g>			<path class="st7" d="M279.4,378.2c0,0,0.4,0.2,1.2,0.4c5.6,2,28.5,10.8,29.3,19.1c0.9,9.5-26.7,25.2-40.6,31.4     c-13.9,6.2-64.3,17.8-64.3,17.8s0.9,8,2.4,13.6c1.5,5.6,8.3,13.3,6.8,15.1c-1.5,1.8-5.3-0.3-11.8-3c-6.5-2.7-9.5-11.3-14.5-16.6     s-8.6-13-8.6-15.7c0-2.7,7.7-3.3,10.4-4.1c2.7-0.9,18.4-1.2,27.8-7.1c9.5-5.9,43.2-25.5,43.2-25.5s-27.2,4.7-40.9,3.6     c-13.6-1.2-32.6-7.4-43.5-16c-11-8.6,0.3-23.4,4.1-26.7c3.9-3.3,40,2.7,58.6,4.1C257.8,370.2,279.4,378.2,279.4,378.2z"></path>			<path class="st8" d="M231.5,420.7c-5.9,3.5-11.1,6.6-14.1,8.4c-9.5,5.9-25.2,6.2-27.8,7.1c-2.7,0.9-10.4,1.5-10.4,4.1     c0,2.7,3.6,10.4,8.6,15.7c5,5.3,8,13.9,14.5,16.6c6.5,2.7,10.4,4.7,11.8,3c1.5-1.8-5.3-9.5-6.8-15.1c-1.5-5.6-2.4-13.6-2.4-13.6     s19.5-4.5,37.6-9.4L231.5,420.7z"></path>			<path class="st9" d="M199.4,446.6c0,0-2.3-6.5-3.9-11.2c-2.9,0.4-5.1,0.6-5.9,0.9c-2.7,0.9-10.4,1.5-10.4,4.1     c0,2.7,3.6,10.4,8.6,15.7c5,5.3,8,13.9,14.5,16.6c6.5,2.7,10.4,4.7,11.8,3c1.5-1.8-5.3-9.5-6.8-15.1c-1.5-5.6-2.4-13.6-2.4-13.6     l-3.9-0.3H199.4z"></path>			<path class="st8" d="M214.2,475.6c0.2-0.3,0.2-0.7,0.1-1.2c-4.8-1.5-11.5-3.6-14.9-6.8c-4.4-4.1-6.5-10.1-10.1-14.8     c-2.7-3.5-5.6-11.2-7-14.9c-1.8,0.6-3.1,1.3-3.1,2.4c0,2.7,3.6,10.4,8.6,15.7c5,5.3,8,13.9,14.5,16.6     C208.9,475.3,212.7,477.4,214.2,475.6z"></path>		</g>		<path class="st7" d="M182.2,331.4c0,0-12.1,4.7-19,18.7c-6.8,13.9-0.6,30.2,9.2,39.1c9.8,8.9,32,9.8,42.4,8.6    c10.4-1.2,22.8-1.5,22.8-1.5s-40.9,42.6-42.1,43.5c-1.2,0.9-17.2,11-17.2,11.8c0,0.9,10.1,18.4,16.9,24.9s13,11.6,16,9.2    c3-2.4-0.6-2.7-0.9-6.5c-0.3-3.9-1.8-11.9-3-18.7c-1.2-7.1-0.9-11.8-0.9-11.8s68.7-48.3,77.3-61.6c8.6-13.3,2.1-20.7-5-24.9    c-7.1-4.1-63.1-9.8-94.8-4.1"></path>		<g>			<path class="st11" d="M230.1,404.1c0,0,22-26.8,29.7-32.5"></path>			<path class="st11" d="M188.1,355.3c8.5-0.3,22.4-0.6,32.9-0.4"></path>			<path class="st11" d="M180.2,355.6c0,0,1.1,0,2.9-0.1"></path>			<path class="st11" d="M194.3,397c10.2,1.3,24.8,2.8,43.6-3"></path>			<path class="st11" d="M183.8,395c0,0,1.6,0.5,4.4,1"></path>			<path class="st11" d="M251.3,417.4c10.6-7.3,25.4-19.2,34.5-33.5"></path>			<path class="st11" d="M238.9,425.3c0,0,2.4-1.3,6.2-3.7"></path>		</g>		<path class="st8" d="M225.8,434.8l-12.6-13.2c-9,9.3-17.1,17.7-17.6,18.1c-1.2,0.9-17.2,11-17.2,11.8c0,0.9,10.1,18.4,16.9,24.9    c6.8,6.5,13,11.6,16,9.2c3-2.4-0.6-2.7-0.9-6.5c-0.3-3.9-1.8-11.9-3-18.7c-1.2-7.1-0.9-11.8-0.9-11.8S214.7,442.9,225.8,434.8z"></path>		<g>			<path class="st9" d="M202.1,450.1c-2.1,0.6-3.3,1.2-3.3,1.2l-4.3-10.9c-3.8,2.5-16.2,10.4-16.2,11.2c0,0.9,10.1,18.4,16.9,24.9     c6.8,6.5,13,11.6,16,9.2c3-2.4-0.6-2.7-0.9-6.5c-0.3-3.9-1.8-11.9-3-18.7c-1.2-7.1-0.9-11.8-0.9-11.8S204.1,449.5,202.1,450.1z"></path>			<path class="st8" d="M211.1,485.8c-7-3.4-15.5-10.7-20.3-19.4c-3.3-6.1-7-13-9.3-17.3c-1.9,1.3-3.1,2.3-3.1,2.5     c0,0.9,10.1,18.4,16.9,24.9C201.9,482.9,208.1,487.8,211.1,485.8z"></path>		</g>		<g>			<g>				<path class="st8" d="M259.2,285.5c0,0-6.5-7.7-8.6-8.9c-2.1-1.2-1.5-5.6-1.5-9.2c0-3.6-2.1-6.2,0.3-6.2c2.4,0,3.9,1.8,3.9,4.7      c0,3-0.9,3.6,0.3,4.4c1.2,0.9,3.6,2.1,3.6,2.1v-13.9c0,0-3.3-3.3-2.1-3.3c1.2,0,3.3,0.3,5.6,0.6c2.4,0.3,9.5-0.3,11.3,1.5      c1.8,1.8,1.5,5.6,1.5,5.6s2.7,0,3,1.8c0.3,1.8-0.3,4.1-1.2,10.4c-0.9,6.2-2.7,19.8-2.7,26.7s-0.9,32-3.9,40      c-3,8-12.4,15.1-15.4,14.5c-3-0.6-7.7-7.4-6.5-15.4c1.2-8,8-26.1,11.3-34.9c3.3-8.9,3.3-19,3.3-19L259.2,285.5z"></path>				<path class="st10" d="M260.7,255.8c0,0,1.5,0.8,1.7,1.8s0.8,5.6,0.8,5.6"></path>				<path class="st8" d="M265.8,255.8c0,0,2.2,1.7,2.2,3.7c0,2,0,4.4,0,4.4"></path>				<line class="st8" x1="273.4" y1="263" x2="273.3" y2="266.1"></line>			</g>			<path class="st9" d="M271.7,322c-10.9,1.9-15.8-1.3-17.9-4.3c-3,8.4-6.2,17.9-7,23.2c-1.2,8,3.6,14.8,6.5,15.4     c3,0.6,12.4-6.5,15.4-14.5C270.1,337.8,271.1,329.9,271.7,322z"></path>		</g>	</g></g></svg>